<svg xmlns="http://www.w3.org/2000/svg" width="65" height="55" viewBox="0 0 65 55"><defs><linearGradient id="gdm1a" x1="32" x2="33" y1="55" y2="0" gradientUnits="userSpaceOnUse"><stop offset="0" stop-color="#009ded"/><stop offset="1" stop-color="#00c9ed"/></linearGradient></defs><g><g><path fill="url(#gdm1a)" d="M0 54.238V4.88c.034-.115.077-.228.1-.346C.65 1.823 2.772.027 5.597.014c7.445-.027 14.89-.019 22.335 0 1.837.004 3.359.73 4.486 2.19.786 1.016 1.113 2.177 1.11 3.44-.002 1.39 0 2.78 0 4.232h.81c8.248 0 16.497.004 24.745-.003 1.282-.002 2.473.255 3.535.99.075.052.176.067.373.139-.07-.73-.056-1.384-.206-2-.385-1.584-1.757-2.518-3.619-2.52-7.318-.003-14.636 0-21.954-.006-.313 0-.643-.016-.936-.11-.448-.147-.728-.53-.608-.967.091-.332.39-.64.667-.878.145-.124.445-.1.674-.1 7.403-.005 14.806-.007 22.208 0 1.56 0 2.947.478 4.093 1.553.957.898 1.42 2.04 1.69 3.28l.001 44.984c-.291.567-.757.76-1.397.76-20.736-.01-41.47-.01-62.206 0-.64 0-1.106-.193-1.397-.76zm62.9-1.304c.014-.244.034-.428.034-.61.001-12.225.006-24.449-.015-36.673 0-.607-.117-1.265-.375-1.809-.672-1.423-1.933-1.942-3.473-1.942-8.653.005-17.306.002-25.96.002-1.418 0-1.638-.22-1.638-1.64V5.951c-.003-2.532-1.393-3.914-3.948-3.916-7.172-.002-14.345-.002-21.517 0-2.53.002-3.942 1.379-3.942 3.858-.003 15.452-.001 30.904 0 46.356 0 .22.02.441.032.685H62.9zm-30.425-6.838h-9.453c-1.589 0-1.865-.291-1.74-1.836.407-5.017 4.002-9.034 9.007-10.064 6.48-1.334 12.89 3.38 13.415 9.865.146 1.812-.063 2.035-1.903 2.035h-9.326zm9.095-2.1c-.213-4.378-4.704-8.182-9.374-7.977-4.573.201-8.9 4.146-8.732 7.978H41.57zm-9.077-12.073c-3.641-.006-6.671-2.983-6.676-6.56-.006-3.586 3.087-6.617 6.722-6.588 3.627.03 6.666 3.05 6.644 6.602-.022 3.588-3.053 6.553-6.69 6.546zm.102-11.077c-2.512-.064-4.597 1.886-4.677 4.37-.08 2.503 1.912 4.586 4.456 4.659 2.533.072 4.647-1.908 4.71-4.41.063-2.507-1.926-4.553-4.49-4.619zm-9.054 5.609c-.002 2.79-2.314 5.073-5.16 5.094-2.85.022-5.209-2.306-5.19-5.122.019-2.798 2.35-5.073 5.187-5.063 2.839.01 5.165 2.303 5.163 5.09zm-2.077.028c.012-1.684-1.367-3.073-3.072-3.093-1.681-.021-3.122 1.372-3.143 3.038-.02 1.668 1.381 3.067 3.087 3.078 1.72.012 3.115-1.337 3.128-3.023zm25.174 5.068c-2.832 0-5.154-2.275-5.178-5.077-.025-2.8 2.348-5.129 5.205-5.11 2.843.017 5.152 2.31 5.143 5.104-.008 2.797-2.331 5.081-5.17 5.083zm-.007-2.045c1.71.003 3.115-1.37 3.12-3.046.004-1.658-1.423-3.068-3.11-3.072-1.696-.003-3.104 1.385-3.105 3.062-.002 1.69 1.38 3.054 3.095 3.056zM11.996 41.005c2.046 0 4.031-.004 6.017.004.27.001.557.017.81.102.48.162.68.542.63 1.03-.046.466-.314.842-.782.847-2.683.028-5.368.041-8.052-.007-.63-.011-.817-.58-.814-1.151.017-3.91 3.199-7.507 7.125-8.099 1.768-.266 3.45-.049 5.068.687.822.374 1.113.89.846 1.487-.27.604-.858.736-1.68.376-2.768-1.207-5.59-.654-7.635 1.531-.818.873-1.333 1.91-1.533 3.193zm40.981 0c-.31-2.612-2.772-4.98-5.35-5.274-1.364-.157-2.646.01-3.886.591-.726.34-1.308.172-1.576-.396-.274-.582.002-1.115.76-1.469 5.585-2.606 11.962 1.153 12.264 7.23.043.87-.299 1.339-1.104 1.347-2.454.024-4.909.02-7.363.002-.695-.005-1.131-.45-1.115-1.028.016-.552.446-.946 1.098-.998.169-.013.339-.005.508-.005h5.764z"/></g></g></svg>