<svg xmlns="http://www.w3.org/2000/svg" width="51" height="65" viewBox="0 0 51 65"><defs><linearGradient id="o6yia" x1="25" x2="26" y1="65" y2="0" gradientUnits="userSpaceOnUse"><stop offset="0" stop-color="#00aaed"/><stop offset="1" stop-color="#00c8ed"/></linearGradient></defs><g><g><path fill="url(#o6yia)" d="M21.773 65c-1.042-.073-2.085-.138-3.127-.218-1.771-.136-3.542-.282-5.313-.42-1.125-.089-1.506-.555-1.378-1.658.158-1.361.298-2.726.464-4.265-1.174-.09-2.311-.278-3.444-.249-2.502.066-5.001.253-7.503.362-1.12.049-1.496-.377-1.47-1.48.084-3.62 1.207-6.974 2.724-10.217a46.47 46.47 0 0 1 5.496-8.989c.719-.918 1.125-1.884 1.33-3.015 1.862-10.287 5.701-19.83 11.239-28.716 1.12-1.8 2.34-3.539 3.544-5.285.23-.333.603-.57.91-.852h.515c.32.3.7.556.95.902 4.466 6.168 8.096 12.783 10.811 19.879 1.888 4.933 3.26 10.007 4.185 15.2.067.375.26.761.495 1.067 2.73 3.55 5.085 7.318 6.802 11.45 1.135 2.734 1.931 5.551 1.999 8.534.026 1.157-.331 1.572-1.492 1.521-2.503-.109-5.003-.296-7.506-.363-1.118-.028-2.242.157-3.448.253.135 1.264.232 2.396.381 3.52.267 2.004.128 2.244-1.9 2.436-2.174.204-4.356.321-6.534.48-.467.034-.933.082-1.4.122h-7.33zm-4.037-48.488c-.078.155-.139.264-.19.378-2.905 6.44-4.984 13.12-6.099 20.09a69.635 69.635 0 0 0-.49 18.59c.035.32.104.5.465.54 3.317.372 6.623.888 9.95 1.11 6.095.408 12.156-.057 18.172-1.104.322-.057.464-.154.503-.506a69.275 69.275 0 0 0-.066-15.64 74.043 74.043 0 0 0-3.842-16.387c-.852-2.383-1.842-4.718-2.784-7.112-5.276 2.284-10.446 2.283-15.619.04zm14.573-2.028c-1.99-4.006-4.225-7.776-6.813-11.41-2.587 3.684-4.84 7.43-6.795 11.412 4.553 1.966 9.037 1.972 13.608-.002zm4.005 44.385c-7.273.952-14.455.93-21.657.005-.076.63-.145 1.152-.201 1.676-.059.538-.106 1.078-.163 1.665 7.5.727 14.924.73 22.4-.005l-.379-3.341zm5.956-2.864l6.48.35c-.664-5.646-3.178-10.386-6.257-14.92a78.07 78.07 0 0 1-.223 14.57zm-33.527.001c-.557-4.93-.59-9.745-.24-14.574-3.062 4.56-5.604 9.296-6.24 14.925l6.48-.35zm16.983-30.712c6.104.133 10.969 5.053 10.82 10.944-.152 5.979-5.124 10.727-11.099 10.599-6.001-.127-10.871-5.08-10.725-10.905.15-5.97 5.11-10.766 11.004-10.638zm-.07 19.303c4.802-.018 8.65-3.852 8.615-8.582-.035-4.71-3.896-8.49-8.659-8.478-4.762.012-8.612 3.82-8.617 8.521-.005 4.732 3.874 8.556 8.661 8.539zm-.113-1.9c-3.727-.063-6.692-3.094-6.62-6.767.072-3.663 3.153-6.561 6.898-6.488 3.629.072 6.58 3.116 6.523 6.732-.056 3.638-3.128 6.584-6.801 6.523zm3.033-9.896l-4.409 7.38c1.9.718 4.115-.036 5.2-1.707 1.189-1.828.903-4.085-.791-5.673zm-2.019-1.01c-2.15-.469-4.084.72-4.873 2.238-.832 1.6-.622 3.561.613 4.885l4.26-7.124z"/></g></g></svg>