<svg xmlns="http://www.w3.org/2000/svg" width="65" height="59" viewBox="0 0 65 59"><defs><linearGradient id="jgz1a" x1="32" x2="33" y1="59" y2="0" gradientUnits="userSpaceOnUse"><stop offset="0" stop-color="#00aaed"/><stop offset="1" stop-color="#00c8ed"/></linearGradient></defs><g><g><path fill="url(#jgz1a)" d="M65 23.471v27.576c-.731 2.352-2.402 3.076-4.72 3.025-4.16-.09-8.322-.025-12.483-.025h-.796c0 .8.003 1.501 0 2.201-.005.789-.26 1.504-.882 1.971-.457.344-1.035.526-1.559.78H32.627c-1.972-.67-2.433-1.327-2.433-3.469v-8.906-.757H16.049c-.232 0-.467.007-.696-.022-.683-.085-1.068-.52-1.027-1.139.038-.588.445-.962 1.116-.98.676-.02 1.353 0 2.03-.012.182-.003.426.003.535-.105.548-.54 1.06-1.117 1.683-1.787h-.872c-4.651 0-9.302-.006-13.954.003-1.302.002-2.448-.376-3.418-1.273C.649 39.814.28 38.85 0 37.836V4.104C.282 2.848.76 1.662 1.888.989 2.662.527 3.586.32 4.443 0h53.574c.12.036.237.09.359.106 2.146.27 3.827 1.924 3.96 4.08.113 1.808.079 3.627.084 5.44.01 3.482 0 6.962.013 10.443.001.222.086.587.227.644 1.27.51 1.914 1.534 2.34 2.76zM60.26 5.802H2.196v30.121h27.946c.385-1.902 1.304-2.669 3.166-2.675h2.929v-.87c0-2.564-.007-5.129.006-7.694.003-.487.026-.99.149-1.458.466-1.775 1.84-2.736 3.867-2.737 6.41-.004 12.82-.001 19.23-.001h.771V5.802zM38.361 33.176c.15.041.19.061.231.061 1.756.005 3.511.007 5.266.01 2.115.005 3.146 1.046 3.147 3.19.003 3.569.001 7.137.001 10.704v.734h15.798v-21.26H39.024c-.063 0-.127.005-.19 0-.35-.036-.492.108-.479.476.023.64.006 1.281.006 1.923v4.162zm6.484 6.396H32.356v13.055h12.489V39.572zM60.003 3.575c-.632-1.107-1.543-1.39-2.622-1.39-17.455.005-34.91.003-52.365.009-.357 0-.726.021-1.067.116-.662.183-1.207.54-1.483 1.265h57.537zm2.799 20.853c.086-.978-.366-1.6-1.265-1.75a4.264 4.264 0 0 0-.693-.053c-6.81-.002-13.62-.002-20.43 0-.19 0-.382 0-.57.026-.978.127-1.45.704-1.43 1.777h24.388zM2.36 38.143c.57 1.208 1.497 1.529 2.638 1.527 8.165-.01 16.33-.005 24.496-.006.221 0 .443-.026.655-.039v-1.482H2.359zm44.683 13.735c.207.014.332.031.457.032 4.5 0 9 .002 13.5-.003.23 0 .464-.034.689-.085.802-.178 1.23-.858 1.09-1.7H47.043v1.756zm-2.151-14.524V36.5c-.004-.988-.11-1.095-1.096-1.095H33.96c-1.733 0-1.78.052-1.617 1.815.004.037.042.071.08.133h12.469zM32.318 54.857v.777c0 1.108.064 1.175 1.135 1.175h7.87c.93 0 1.862-.003 2.793.001.41.003.725-.132.755-.587.03-.441.007-.885.007-1.366h-12.56zM20.878 43.68h9.276v-1.794c-.096-.027-.155-.057-.214-.057-2.346-.003-4.693-.009-7.04.003a.773.773 0 0 0-.491.21c-.492.496-.958 1.02-1.53 1.638z"/></g></g></svg>