<svg xmlns="http://www.w3.org/2000/svg" width="60" height="60" viewBox="0 0 60 60"><defs><linearGradient id="iz06a" x1="30" x2="30" y1="60" y2="0" gradientUnits="userSpaceOnUse"><stop offset="0" stop-color="#00aaed"/><stop offset="1" stop-color="#0accee"/></linearGradient></defs><g><g><path fill="url(#iz06a)" d="M24.492 60c-.557-.336-.693-.823-.59-1.446.24-1.462.44-2.93.673-4.393.057-.354.003-.613-.27-.882-1.084-1.068-2.137-2.168-3.204-3.252-.313-.319-.566-.655-.41-1.139.16-.502.565-.647 1.034-.723 1.48-.239 2.96-.497 4.442-.728.378-.06.606-.224.783-.578.671-1.34 1.384-2.662 2.069-3.996.208-.406.465-.742.953-.755.518-.013.792.33 1.01.757.685 1.334 1.398 2.655 2.069 3.997.177.355.408.516.785.575 1.482.233 2.96.49 4.442.728.469.077.873.224 1.033.726.153.484-.101.819-.414 1.137-1.067 1.085-2.144 2.162-3.184 3.272-.18.191-.307.546-.275.803.18 1.43.406 2.855.639 4.279.107.656.086 1.242-.57 1.617h-.585c-1.541-.776-3.08-1.56-4.63-2.318a.752.752 0 0 0-.581-.001c-1.551.759-3.09 1.543-4.633 2.32h-.586zm11.948-9.976a41.655 41.655 0 0 1-.14-.236c-.786-.136-1.572-.27-2.357-.408-2.11-.37-1.743-.03-2.8-2.064-.363-.697-.734-1.39-1.149-2.173-.362.697-.658 1.285-.972 1.866-1.323 2.444-.622 1.945-3.428 2.45l-1.909.34-.102.204c.602.554 1.168 1.153 1.814 1.648 1.098.84 1.398 1.853 1.018 3.178-.225.782-.249 1.62-.376 2.527 1.013-.505 1.945-.909 2.815-1.418.797-.467 1.497-.464 2.294 0 .88.515 1.823.922 2.824 1.418-.182-1.229-.32-2.35-.523-3.457-.116-.64.017-1.138.503-1.574.84-.755 1.66-1.533 2.488-2.301zM0 48.866c.267-.455.67-.643 1.19-.72 1.445-.212 2.883-.478 4.326-.707.373-.06.613-.211.79-.569.661-1.324 1.364-2.628 2.04-3.945.225-.436.482-.828 1.034-.817.518.01.769.378.984.798.676 1.319 1.382 2.62 2.044 3.945.176.353.396.525.778.585 1.483.23 2.961.488 4.442.728.465.076.874.209 1.038.717.157.486-.086.82-.4 1.139-1.068 1.085-2.12 2.184-3.204 3.253-.272.27-.334.532-.278.884.226 1.424.425 2.852.661 4.275.107.644.05 1.196-.562 1.567h-.586c-1.543-.775-3.082-1.556-4.633-2.314a.75.75 0 0 0-.582-.01c-1.55.76-3.088 1.546-4.629 2.324h-.586c-.557-.33-.71-.798-.603-1.435.244-1.441.415-2.894.663-4.334.074-.438-.022-.715-.328-1.026-1.217-1.234-2.402-2.499-3.6-3.752v-.586zm13.325 8.49c-.123-.878-.227-1.628-.335-2.378-.34-2.339-.522-1.748 1.16-3.497.518-.537 1.041-1.068 1.629-1.67-.93-.163-1.732-.403-2.54-.423-1.426-.036-2.236-.733-2.727-2.019-.285-.749-.735-1.436-1.154-2.23-.58 1.11-1.125 2.097-1.614 3.113-.294.61-.733.893-1.396.983-1.11.15-2.21.368-3.313.559l-.115.194c.848.8 1.693 1.606 2.548 2.4.424.393.558.842.456 1.42-.202 1.148-.349 2.305-.532 3.55 1.12-.555 2.173-1.055 3.203-1.597.537-.282 1.016-.273 1.55.007 1.012.532 2.047 1.025 3.18 1.588zm31.792 2.643c-.582-.356-.674-.881-.57-1.51.234-1.424.428-2.854.663-4.276.067-.403-.015-.687-.315-.983-1.07-1.054-2.108-2.14-3.162-3.21-.314-.32-.56-.653-.4-1.14.167-.506.574-.64 1.04-.716 1.48-.24 2.959-.497 4.441-.728.382-.06.602-.233.778-.585.662-1.325 1.369-2.628 2.044-3.945.215-.42.466-.788.984-.798.552-.01.809.38 1.033.817.677 1.317 1.38 2.62 2.04 3.945.178.358.418.508.79.569 1.444.229 2.882.495 4.328.708.519.076.922.264 1.189.72v.585c-.227.264-.44.541-.682.792-.979 1.008-1.956 2.017-2.955 3.003-.28.277-.366.534-.3.925.242 1.461.423 2.933.67 4.393.109.636-.045 1.105-.6 1.434h-.586c-1.54-.778-3.076-1.563-4.625-2.322a.752.752 0 0 0-.582.006c-1.552.758-3.093 1.54-4.637 2.316h-.586zm-.782-10.213l-.112.206c.586.54 1.196 1.059 1.754 1.627 1.515 1.545 1.372 1.075 1.05 3.256-.118.793-.222 1.589-.346 2.478 1.084-.538 2.075-.991 3.026-1.516.651-.36 1.219-.357 1.869.003.963.531 1.967.99 3.029 1.516-.176-1.216-.299-2.338-.512-3.444-.13-.674.035-1.17.528-1.619.834-.758 1.646-1.54 2.467-2.312l-.123-.19c-.897-.152-1.789-.368-2.692-.441-1.12-.092-1.908-.514-2.296-1.628-.191-.546-.524-1.043-.796-1.56-.165-.313-.335-.622-.547-1.014-.582 1.109-1.128 2.096-1.62 3.11-.285.586-.698.882-1.342.97-1.116.155-2.225.369-3.337.558zM31.055 0c1.05.335 2.153.556 3.14 1.023 3.642 1.718 5.771 5.831 5.152 9.77-.657 4.177-3.831 7.373-7.921 7.975-5.745.845-10.871-3.545-10.877-9.318-.005-4.632 3.445-8.647 8.018-9.333.13-.019.252-.077.378-.117h2.11zm6.464 9.442c-.004-4.154-3.387-7.54-7.525-7.531-4.15.01-7.517 3.391-7.513 7.544.004 4.153 3.383 7.533 7.525 7.528 4.145-.004 7.517-3.389 7.513-7.54zm6.856 26.76c-.598-7.93-7.186-13.8-15.073-13.444-7.834.354-13.364 6.811-13.652 13.447.896 0 1.79-.013 2.685.003.646.011 1.037.383 1.039.943.002.524-.354.928-.914.937a105.36 105.36 0 0 1-3.866-.001c-.603-.011-.922-.405-.92-1.052.01-2.77.672-5.382 2.039-7.782 2.44-4.28 6.068-7.057 10.9-8.057 5.277-1.093 10.032.159 14.13 3.682 2.72 2.338 4.458 5.302 5.201 8.81.233 1.099.296 2.238.372 3.365.049.718-.354 1.046-1.161 1.047-3.496.005-6.992.003-10.487.003L22.775 38.1c-.215 0-.433.01-.643-.023-.487-.08-.77-.39-.795-.874-.027-.516.257-.853.755-.968.224-.053.466-.033.7-.033l20.856-.001h.727zM30.13 13.777c-1.418-.048-2.443-.5-3.278-1.37-.43-.449-.471-.943-.114-1.357.36-.419.906-.433 1.402-.036 1.462 1.168 2.26 1.169 3.717.002.494-.396 1.043-.383 1.403.033.359.412.32.907-.11 1.357-.881.922-1.97 1.357-3.02 1.37z"/></g></g></svg>