<svg 
 xmlns="http://www.w3.org/2000/svg"
 xmlns:xlink="http://www.w3.org/1999/xlink"
 width="0.375in" height="0.375in">
<path fill-rule="evenodd"  fill="rgb(255, 255, 255)"
 d="M26.703,12.827 L14.166,0.280 C14.004,0.117 13.749,0.001 13.493,0.001 C13.238,0.001 12.982,0.117 12.820,0.280 L0.284,12.827 C-0.088,13.199 -0.088,13.803 0.284,14.175 C0.469,14.361 0.701,14.454 0.957,14.454 C1.212,14.454 1.444,14.361 1.630,14.175 L12.541,3.254 L12.541,26.049 C12.541,26.583 12.959,27.002 13.493,27.002 C14.027,27.002 14.445,26.583 14.445,26.049 L14.445,3.254 L25.356,14.175 C25.728,14.547 26.331,14.547 26.703,14.175 C27.074,13.803 27.051,13.199 26.703,12.827 Z"/>
</svg>