<svg xmlns="http://www.w3.org/2000/svg" width="10" height="11" viewBox="0 0 10 11"><g><g><path fill="#fff" d="M.104 6.562A.312.312 0 0 1 0 6.329c0-.09.034-.17.103-.233a.369.369 0 0 1 .497 0L4.98 10.2l4.378-4.104a.369.369 0 0 1 .497 0 .315.315 0 0 1 0 .466L5.228 10.9a.369.369 0 0 1-.498 0z"/></g><g><path fill="#fff" d="M.104.562A.31.31 0 0 1 0 .329C0 .24.035.16.104.096a.369.369 0 0 1 .497 0L4.98 4.2 9.357.096a.369.369 0 0 1 .497 0 .315.315 0 0 1 0 .466L5.228 4.9a.369.369 0 0 1-.498 0z"/></g></g></svg>