<svg xmlns="http://www.w3.org/2000/svg" viewBox="0 0 511.62 402.02"><title>comments</title><g id="Слой_2" data-name="Слой 2"><g id="Capa_1" data-name="Capa 1"><path d="M301.92,272.8q46.4-19.56,73.23-53.25T402,146.18q0-39.69-26.84-73.37T301.92,19.56Q255.53,0,201,0T100.07,19.56Q53.68,39.12,26.84,72.81T0,146.18q0,34,20.28,64T76,260.67q-2.86,6.85-5.85,12.57a72.13,72.13,0,0,1-7.14,11c-2.76,3.53-4.9,6.28-6.43,8.28s-4,4.8-7.42,8.42-5.62,6-6.57,7.13q0-.29-1.14,1.29c-.76,1-1.19,1.52-1.29,1.43s-.47.37-1.14,1.42-1,1.57-1,1.57l-.71,1.42a5.7,5.7,0,0,0-.57,1.72,10.66,10.66,0,0,0-.15,1.85,5.83,5.83,0,0,0,.29,1.85,9.48,9.48,0,0,0,3.28,6A8.94,8.94,0,0,0,46,328.89h.85a237.87,237.87,0,0,0,24.56-4.57,240.23,240.23,0,0,0,79.37-36.54A287.29,287.29,0,0,0,201,292.34Q255.52,292.37,301.92,272.8ZM142.18,249l-12.56,8.84q-8,5.43-17.7,11.14l10-24-27.7-16q-27.4-16-42.54-37.69T36.55,146.18q0-29.12,22.41-54.53t60.38-40.26q38-14.85,81.66-14.85t81.65,14.85q38,14.85,60.39,40.26t22.41,54.53q0,29.13-22.41,54.53T282.65,241q-38,14.85-81.65,14.84a247.36,247.36,0,0,1-43.68-4Z"/><path d="M491.35,283.36q20.26-29.85,20.27-64.1,0-35.12-21.41-65.67T432,102.77A146.88,146.88,0,0,1,419.4,218.69q-19.12,34.25-54.82,60.52-33.12,24-75.37,36.83A301.77,301.77,0,0,1,201,328.89q-8.56,0-25.12-1.14,57.38,37.68,134.75,37.69a287.32,287.32,0,0,0,50.25-4.57A227.68,227.68,0,0,0,464.8,402a8.57,8.57,0,0,0,6.28-2,10.62,10.62,0,0,0,3.71-6.28c-.09-1.14,0-1.77.29-1.86s.23-.71-.15-1.85-.57-1.71-.57-1.71l-.71-1.43a14,14,0,0,0-1-1.57,11,11,0,0,0-1.14-1.42c-.28-.29-.7-.77-1.28-1.43s-1-1.09-1.14-1.28q-1.43-1.71-6.57-7.14a110.89,110.89,0,0,1-7.42-8.42c-1.52-2-3.66-4.75-6.42-8.28a72.13,72.13,0,0,1-7.14-11q-3-5.71-5.85-12.56Q471.07,313.19,491.35,283.36Z"/></g></g></svg>