<svg xmlns="http://www.w3.org/2000/svg" width="24" height="19" viewBox="0 0 24 19"><g><g><path fill="#fff" d="M0 16.361V2.407c.015-.049.036-.098.045-.148.115-.702.462-1.257.999-1.698.381-.314.824-.47 1.294-.562h19.279c.28.082.577.124.835.253 1.032.516 1.532 1.393 1.538 2.565.009 1.976.006 3.953.007 5.928.001 2.416.003 4.832-.001 7.246-.002.94-.358 1.714-1.06 2.319-.546.47-1.178.685-1.886.683H3.72c-.331 0-.663.017-.992-.008-1.031-.08-1.833-.568-2.332-1.508C.214 17.133.13 16.735 0 16.36zm1.517-14.02c-.025.006-.05.012-.074.016-.013.146-.036.292-.036.437-.002 4.379-.002 8.757 0 13.135 0 .15.003.306.038.45.181.746.733 1.165 1.529 1.165l13.168-.004c1.632 0 3.264.002 4.897.004.363.002.7-.078.988-.316.41-.336.571-.78.57-1.313-.01-2.69-.01-5.379-.011-8.067-.001-1.674.005-3.348.001-5.022 0-.188-.041-.376-.07-.61-.09.07-.125.094-.156.123a8446.929 8446.929 0 0 0-4.549 4.062c-1.782 1.592-3.562 3.187-5.346 4.779-.376.336-.697.327-1.078-.012-.628-.56-1.257-1.119-1.883-1.68l-6.923-6.2c-.354-.317-.71-.631-1.065-.946zm1.21-.893l-.025.055c.035.026.072.051.104.08 3 2.68 6 5.36 8.995 8.044.119.107.185.085.29-.01 2.98-2.67 5.96-5.336 8.943-8.001.047-.043.112-.065.168-.096l-.056-.072H2.726z"/></g></g></svg>