<svg xmlns="http://www.w3.org/2000/svg" viewBox="0 0 20 24" fill="none" id="hand" width="100%" height="100%"><path fill-rule="evenodd" clip-rule="evenodd" d="M13.903 16.09a.272.272 0 0 0 .46.2c.952-.91 1.818-1.75 2.704-2.565.876-.806 1.691-.845 2.55-.254.516.355.488.68.051 1.101a4.28 4.28 0 0 0-.492.553c-.964 1.325-2.002 2.604-2.85 4.001-1.428 2.354-3.219 4.153-5.996 4.711-3.78.76-7.365-1.2-8.25-4.574-.324-1.235-.476-2.516-.695-3.778-.445-2.55-.882-5.1-1.322-7.651-.022-.127-.048-.253-.056-.38-.044-.651.113-1.186.83-1.353.64-.148 1.13.187 1.32.954.375 1.517.717 3.04 1.076 4.561.053.223.113.445.173.667.068.25.366.385.573.233.31-.229.17-.76.15-1.052-.143-2.15-.354-4.297-.54-6.445-.039-.46-.088-.92-.098-1.382-.018-.852.437-1.431 1.128-1.475.686-.043 1.22.469 1.323 1.316.226 1.858.432 3.72.65 5.58.04.356.053.727.166 1.06.068.2.448.456.596.444.224-.018.373-.188.494-.392.116-.196.076-.495.08-.75.047-2.645.086-5.291.133-7.937C8.08.493 8.515-.01 9.321 0c.804.01 1.207.512 1.227 1.522.05 2.697.107 5.394.15 8.091.008.44.027.93.572.862.222-.027.52-.509.556-.811.215-1.835.363-3.677.535-5.517.03-.332.051-.667.11-.994.146-.826.593-1.159 1.385-1.055.678.088 1.11.604 1.056 1.357-.143 1.971-.316 3.94-.476 5.91-.176 2.175-.353 4.35-.525 6.525a2.93 2.93 0 0 0-.008.2z" fill="#fff"></path></svg>