<svg xmlns="http://www.w3.org/2000/svg" width="47" height="30" viewBox="0 0 47 30"><g><g><path fill="#fff" d="M47 16.918c-.307.978-1.04 1.44-1.97 1.78C36.59 21.783 28.158 24.897 19.724 28c-1.445.532-2.511.038-3.05-1.41-1.726-4.629-3.45-9.258-5.171-13.89-.538-1.447-.05-2.516 1.4-3.05C21.451 6.5 30 3.353 38.548.208c1.452-.534 2.514-.04 3.054 1.41 1.724 4.631 3.445 9.263 5.168 13.893.073.196.153.39.23.585v.822zm-4.12.329c-.066-.062-.093-.108-.131-.12-3.423-1.072-6.845-2.144-10.273-3.2-.117-.035-.346.074-.428.184-.483.648-.934 1.318-1.404 1.975-.38.532-.715.655-1.343.499-.77-.191-1.544-.374-2.307-.592-.288-.083-.425-.018-.581.232-1.836 2.948-3.685 5.887-5.53 8.83-.057.092-.094.196-.17.356l22.166-8.164zm-27.303-6.35c.18.056.233.076.286.09 4.347 1.115 8.694 2.227 13.039 3.35.295.076.436-.03.594-.256 2.526-3.607 5.06-7.208 7.59-10.812.064-.09.115-.188.226-.375l-21.735 8.003zm17.912 1.145l11.029 3.444L39.865 2.97l-6.376 9.07zm-19.776.557l4.65 12.515 6.122-9.754-10.772-2.761zM0 26.144c.204-.46.57-.717 1.043-.869.464-.148.912-.346 1.375-.497.638-.21 1.205.023 1.417.558.224.566-.038 1.124-.681 1.391-.479.198-.971.362-1.458.54C.81 27.588.419 27.433 0 26.6v-.457zM7.382 30c-.547-.004-.928-.28-1.063-.7-.143-.447.004-.909.387-1.164.138-.092.291-.17.447-.226 1.186-.441 2.374-.878 3.564-1.308.17-.06.354-.103.534-.111.462-.022.862.273 1.004.715a1.01 1.01 0 0 1-.382 1.13c-.149.101-.318.182-.488.246-1.171.436-2.345.868-3.52 1.295-.184.066-.38.098-.483.123zm-.438-12.223c-.033.483-.25.822-.67.983-.836.323-1.676.64-2.529.919a1 1 0 0 1-1.246-.57c-.212-.513-.049-1.085.483-1.309a27.02 27.02 0 0 1 2.74-.994c.622-.186 1.223.358 1.222.971z"/></g></g></svg>