<svg xmlns="http://www.w3.org/2000/svg" width="30" height="30" viewBox="0 0 30 30"><g><g><path fill="#fff" d="M30 22.499c0 2.07-.732 3.837-2.198 5.302-1.464 1.465-3.232 2.198-5.302 2.198-1.692 0-3.216-.522-4.57-1.563-1.003.207-1.98.312-2.93.312-1.862 0-3.643-.361-5.342-1.083-1.7-.723-3.164-1.7-4.395-2.93-1.23-1.23-2.207-2.695-2.93-4.395a13.508 13.508 0 0 1-1.083-5.341c0-.951.104-1.928.312-2.93C.521 10.713 0 9.19 0 7.498 0 5.427.732 3.66 2.197 2.194 3.662.731 5.43 0 7.5 0c1.693 0 3.216.52 4.57 1.562A14.43 14.43 0 0 1 15 1.249c1.862 0 3.643.36 5.342 1.083 1.7.723 3.164 1.699 4.394 2.93 1.231 1.23 2.208 2.695 2.93 4.395.723 1.699 1.084 3.48 1.084 5.342 0 .95-.104 1.927-.312 2.929 1.04 1.354 1.562 2.878 1.562 4.57zm-7.09-4.24c0-.65-.127-1.246-.38-1.786a4.293 4.293 0 0 0-.948-1.337c-.378-.352-.853-.671-1.426-.957a10.859 10.859 0 0 0-1.611-.665 21.688 21.688 0 0 0-1.71-.449l-2.03-.469c-.391-.09-.678-.16-.86-.205a5.911 5.911 0 0 1-.684-.225c-.273-.104-.469-.208-.585-.313a1.62 1.62 0 0 1-.323-.409 1.155 1.155 0 0 1-.146-.586c0-1.003.937-1.504 2.812-1.504.56 0 1.061.078 1.504.234.443.157.794.343 1.055.557.26.215.508.433.742.654.235.222.495.41.781.567.287.156.6.234.938.234.612 0 1.104-.209 1.474-.625.372-.416.557-.917.557-1.503 0-.716-.365-1.364-1.094-1.944-.729-.58-1.653-1.02-2.773-1.318-1.12-.3-2.304-.45-3.555-.45-.885 0-1.745.1-2.578.304a8.958 8.958 0 0 0-2.334.917A4.738 4.738 0 0 0 7.998 8.68c-.436.724-.654 1.56-.654 2.51 0 .794.123 1.488.37 2.08a3.703 3.703 0 0 0 1.095 1.475 6.618 6.618 0 0 0 1.562.947c.56.24 1.23.453 2.012.635l2.852.703c1.172.286 1.901.52 2.187.703.417.26.625.651.625 1.173 0 .506-.26.927-.781 1.259-.521.332-1.205.498-2.051.498-.664 0-1.26-.104-1.788-.313-.527-.208-.95-.46-1.269-.752-.319-.293-.615-.586-.889-.878a4.649 4.649 0 0 0-.898-.753 1.925 1.925 0 0 0-1.055-.313c-.65 0-1.142.196-1.474.586-.332.392-.498.88-.498 1.465 0 1.198.794 2.223 2.383 3.076 1.588.853 3.483 1.28 5.683 1.28.95 0 1.862-.12 2.734-.362a8.905 8.905 0 0 0 2.393-1.044 5.062 5.062 0 0 0 1.728-1.826c.43-.762.645-1.619.645-2.57z"/></g></g></svg>