<svg xmlns="http://www.w3.org/2000/svg" width="26" height="22" viewBox="0 0 26 22"><g><g><path fill="#fff" d="M18.738-.001c.281.082.58.127.84.25.922.439 1.38 1.202 1.385 2.2.015 3.128.014 6.257.001 9.385-.004 1.174-.712 2.058-1.846 2.35-.25.064-.52.077-.78.077-3.418.004-6.837.004-10.256 0a.53.53 0 0 0-.453.202c-.923 1.075-1.857 2.139-2.784 3.21-.263.306-.583.455-.987.385-.443-.076-.76-.457-.765-.938-.01-.85-.003-1.698-.004-2.547v-.285c-.318-.017-.61-.03-.903-.049-1.08-.067-2-.945-2.145-1.989-.007-.048-.027-.093-.041-.14V2.118c.012-.021.032-.042.036-.064C.163 1.245.592.641 1.328.281c.28-.139.603-.19.906-.282h16.504zM4.378 16.135c.02.012.043.023.064.034.035-.045.067-.095.105-.138.775-.891 1.557-1.775 2.32-2.675.233-.274.493-.391.855-.39 3.562.008 7.124.005 10.686.005.823 0 1.252-.425 1.252-1.241.001-3.06.001-6.12 0-9.18 0-.82-.425-1.245-1.246-1.245-5.288-.002-10.576-.002-15.864 0-.822 0-1.243.422-1.244 1.246-.002.975 0 1.95 0 2.926 0 2.068.018 4.137-.01 6.204-.011.892.597 1.342 1.294 1.29.311-.024.627.017.938-.008.489-.04.882.235.857.858-.031.77-.008 1.542-.008 2.314zm17.407 5.864c-.318-.1-.543-.316-.756-.563-.887-1.027-1.786-2.043-2.674-3.071a.514.514 0 0 0-.433-.193c-3.029.005-6.058.004-9.088.004-.487 0-.78-.263-.765-.675a.645.645 0 0 1 .549-.602c.108-.015.22-.013.33-.013 3.105 0 6.21.004 9.316-.006.372-.002.637.117.876.398.741.876 1.502 1.734 2.255 2.597.055.063.113.122.203.22.009-.113.019-.181.019-.251 0-.732-.001-1.463.001-2.195.002-.523.247-.766.776-.77.373-.004.745.004 1.117-.004.749-.013 1.181-.44 1.182-1.184.004-3.102.004-6.205 0-9.308 0-.698-.387-1.106-1.088-1.18-.424-.044-.688-.334-.651-.714.035-.357.349-.587.767-.56 1.158.072 2.047.87 2.24 2.007.006.04.025.08.039.118v9.99c-.013.03-.033.06-.038.09-.177 1.083-.981 1.872-2.076 2.003-.314.037-.635.006-.975.006v.331c0 .824-.003 1.647 0 2.472.002.34-.1.631-.379.838-.118.088-.26.144-.391.215h-.356zM7.89 8.128a.768.768 0 0 1-.778-.76.762.762 0 0 1 .768-.767.764.764 0 0 1 .01 1.526zM10.488 6.6a.77.77 0 0 1 .77.77.772.772 0 0 1-.781.758.774.774 0 0 1-.77-.77.77.77 0 0 1 .78-.758zm2.596.001a.768.768 0 0 1 .772.767.774.774 0 0 1-.78.76.772.772 0 0 1-.77-.769.768.768 0 0 1 .778-.758z"/></g></g></svg>