<svg xmlns="http://www.w3.org/2000/svg" width="30" height="26" viewBox="0 0 30 26"><g><g><path fill="#fff" d="M.522 10.95L28.89.056a.813.813 0 0 1 1.091.92l-5.09 24.375a.815.815 0 0 1-1.277.49l-6.95-5.022a1.154 1.154 0 0 0-1.4.04l-3.854 3.125a.814.814 0 0 1-1.292-.387l-2.676-8.564L.53 12.467c-.702-.263-.708-1.25-.008-1.518zm8.57 4.24l1.461 5.109c.104.362.632.325.682-.05l.38-2.8a2.294 2.294 0 0 1 .716-1.377l11.15-10.315c.208-.193-.042-.52-.285-.371l-13.51 8.281a1.35 1.35 0 0 0-.594 1.523z"/></g></g></svg>