<svg xmlns="http://www.w3.org/2000/svg" width="22" height="23" viewBox="0 0 22 23"><g><g><path fill="#fff" d="M11.62-.001c.33.064.667.1.987.199.91.275 1.696.748 2.292 1.505.034.044.09.08.142.101.773.308 1.204.91 1.443 1.673.25.8.245 1.62.164 2.444-.026.26-.084.517-.102.778a.785.785 0 0 0 .075.374c.185.389.206.79.142 1.206-.113.736-.3 1.452-.691 2.091-.131.215-.36.37-.539.556a.589.589 0 0 0-.13.191c-.113.31-.218.62-.32.933a.904.904 0 0 0-.046.26c-.005.352.006.705-.006 1.056-.005.158.051.236.19.309a35.583 35.583 0 0 1 5.04 3.162c1.108.835 1.698 1.928 1.73 3.314.01.411.012.822.001 1.234-.02.788-.475 1.359-1.235 1.57-.042.012-.082.029-.123.044H1.344c-.393-.117-.778-.26-1.01-.62-.138-.215-.298-.462-.314-.704-.057-.87-.122-1.75.12-2.608.253-.895.77-1.612 1.508-2.175a34.445 34.445 0 0 1 5.056-3.184c.172-.09.24-.183.247-.388.016-.538-.018-1.056-.303-1.532a1.203 1.203 0 0 1-.114-.292 4.474 4.474 0 0 0-.604-1.34c-.507-.754-.706-1.644-.746-2.553-.018-.392.097-.753.402-1.034.045-.042.054-.147.043-.217-.201-1.265.02-2.456.732-3.517C7.26 1.494 8.457.52 10.06.122c.216-.054.438-.083.657-.123h.902zM6.354 7.504c-.004.038-.014.082-.011.125.044.674.237 1.305.54 1.907.022.044.057.1.1.115.325.122.372.405.453.694.136.487.295.97.487 1.437.107.261.197.509.184.795-.015.344-.018.69 0 1.033.026.479-.182.777-.612.991A32.42 32.42 0 0 0 2.33 17.82c-.706.537-1.117 1.242-1.178 2.13-.03.44-.022.882-.022 1.323 0 .406.165.566.578.566h18.566c.406 0 .568-.165.572-.575.003-.337.004-.673 0-1.01-.012-.97-.366-1.779-1.138-2.384-.33-.26-.671-.506-1.014-.747a34.514 34.514 0 0 0-4.28-2.563c-.22-.112-.47-.248-.48-.496-.034-.737-.078-1.482.002-2.21.06-.54.31-1.056.473-1.583.083-.272.248-.409.528-.447.063-.008.151-.043.176-.092.297-.586.487-1.204.52-1.864.002-.066-.017-.168-.063-.198-.295-.2-.29-.478-.243-.781.07-.45.15-.9.188-1.354.057-.683.03-1.364-.252-2.006-.127-.288-.316-.556-.63-.634-.304-.075-.474-.258-.662-.483-.962-1.148-2.232-1.427-3.64-1.161-.956.18-1.71.757-2.368 1.438C6.907 3.781 6.458 5.06 6.883 6.572c.154.547.029.767-.529.932z"/></g></g></svg>