<svg xmlns="http://www.w3.org/2000/svg" width="28" height="29" viewBox="0 0 28 29"><g><g><path fill="#fff" d="M27.374 18.488l-.009.034c-.675 2.736-3.72 5.672-6.517 6.283l-.032.006c-2.261.433-4.54.65-6.816.65-.67 0-1.34-.022-2.01-.06L8.9 28.62c-.765.797-2.11.255-2.11-.852v-3.054c-2.691-.77-5.51-3.571-6.158-6.192l-.007-.033a26.787 26.787 0 0 1 0-11.518l.007-.034C1.31 4.199 4.355 1.263 7.151.652l.032-.006a36.136 36.136 0 0 1 13.633 0l.032.006c2.797.61 5.842 3.547 6.517 6.284l.009.034a26.79 26.79 0 0 1 0 11.518zM24.93 7.524c-.451-1.786-2.763-4.005-4.6-4.416-4.2-.8-8.46-.8-12.66 0-1.838.41-4.149 2.63-4.6 4.416a24.313 24.313 0 0 0 0 10.41c.451 1.785 2.762 4.004 4.6 4.415h.001a.175.175 0 0 1 .142.171v5.06a.28.28 0 0 0 .483.194l2.399-2.466 2.255-2.32a.173.173 0 0 1 .128-.053 33.724 33.724 0 0 0 7.251-.586c1.837-.41 4.15-2.63 4.6-4.415a24.288 24.288 0 0 0 0-10.41zm-7.735 12.498c-2.59-1.077-4.974-2.466-6.863-4.596-1.074-1.21-1.914-2.578-2.625-4.025-.337-.687-.62-1.4-.91-2.108-.264-.646.125-1.314.534-1.8.384-.457.878-.806 1.414-1.064.417-.201.83-.086 1.135.27.66.767 1.265 1.572 1.755 2.461.302.548.22 1.217-.327 1.588-.133.09-.254.197-.378.3-.109.089-.21.18-.285.3a.828.828 0 0 0-.055.725c.674 1.857 1.81 3.3 3.675 4.078.299.125.598.27.942.23.576-.068.762-.701 1.166-1.032.394-.322.898-.327 1.323-.057.425.27.837.558 1.246.851.402.287.802.568 1.173.894.356.314.48.728.278 1.155-.367.782-.902 1.432-1.673 1.847-.218.117-.478.155-.723.23-.283-.085-.552-.143-.802-.247zm3.58-8.782c.101.572.137 1.156.182 1.737.02.244-.119.477-.382.48-.271.003-.393-.225-.411-.469-.035-.483-.059-.969-.126-1.448-.35-2.53-2.363-4.622-4.875-5.07-.378-.068-.765-.086-1.148-.126-.242-.025-.56-.04-.613-.342-.045-.253.168-.454.408-.467.066-.003.131 0 .197 0 3.026.085.594.018.087.003 3.349.131 6.09 2.374 6.68 5.702zm-1.652 1.22c-.09.34-.606.384-.725.04a1.037 1.037 0 0 1-.04-.33c-.001-.718-.157-1.436-.52-2.062a3.844 3.844 0 0 0-1.606-1.512 4.631 4.631 0 0 0-1.281-.393c-.193-.032-.388-.052-.582-.078-.236-.034-.361-.183-.35-.416a.364.364 0 0 1 .406-.36c.777.044 1.528.212 2.22.58 1.405.745 2.208 1.922 2.443 3.494.01.072.027.142.033.214.013.177.022.353.035.586-.005.043-.008.143-.033.237zm-2.539-.731c-.02-.182-.036-.366-.08-.543-.085-.347-.27-.67-.561-.883a1.45 1.45 0 0 0-.458-.221c-.208-.06-.424-.044-.632-.095-.225-.056-.35-.239-.314-.45a.408.408 0 0 1 .43-.328c1.313.095 2.252.776 2.386 2.326.01.109.02.224-.003.329a.34.34 0 0 1-.303.278.557.557 0 0 1-.063-.002c-.243-.019-.375-.171-.402-.411z"/></g></g></svg>