<svg xmlns="http://www.w3.org/2000/svg" width="29" height="29" viewBox="0 0 29 29"><g><g><path fill="#fff" d="M29 14.125c0 7.802-6.373 14.127-14.237 14.127-2.496 0-4.84-.637-6.881-1.757L0 28.999l2.57-7.58a13.976 13.976 0 0 1-2.043-7.294C.527 6.325 6.9 0 14.763 0 22.627-.001 29 6.324 29 14.125zM14.763 2.25c-6.6 0-11.969 5.328-11.969 11.876 0 2.6.847 5.006 2.28 6.964L3.58 25.5l4.6-1.462a11.959 11.959 0 0 0 6.585 1.965c6.6 0 11.97-5.328 11.97-11.877S21.363 2.25 14.763 2.25zm6.986 16.778c-.292.807-1.717 1.586-2.356 1.645-.64.058-.64.52-4.188-.866-3.547-1.387-5.786-4.996-5.96-5.227-.176-.23-1.426-1.877-1.426-3.581s.902-2.54 1.221-2.888c.32-.347.698-.434.931-.434.233 0 .466.03.67.03.203 0 .493-.116.784.577.29.694.99 2.398 1.076 2.57.088.174.146.376.03.607-.116.231-.174.375-.35.578-.174.202-.366.451-.523.607-.174.172-.356.359-.153.706.204.347.904 1.479 1.941 2.397 1.333 1.18 2.458 1.545 2.806 1.72.35.172.553.143.756-.088.204-.231.873-1.011 1.106-1.357.232-.347.465-.29.785-.175.32.116 2.035.954 2.385 1.127.348.174.58.26.669.405.086.144.086.837-.204 1.647z"/></g></g></svg>