<svg xmlns="http://www.w3.org/2000/svg" width="25" height="16" viewBox="0 0 25 16"><g><g><path fill="#fff" d="M12.07 8.609c.4.627.603 1.39.603 2.286 0 .925-.23 1.755-.69 2.488-.29.485-.656.896-1.093 1.227a4.234 4.234 0 0 1-1.746.784c-.672.141-1.398.21-2.183.21H0V-.001h7.466c1.884.03 3.217.582 4.005 1.664.472.665.708 1.457.708 2.382 0 .952-.236 1.72-.714 2.3-.27.321-.661.619-1.18.887.787.29 1.381.75 1.786 1.377zM3.08 6.153h3.756c.67 0 1.214-.13 1.635-.387.417-.258.628-.715.628-1.37 0-.73-.277-1.208-.83-1.443-.478-.162-1.087-.244-1.827-.244H3.08zm6.333 4.52c0-.815-.327-1.371-.983-1.675-.369-.169-.884-.258-1.547-.263H3.08v4.162h3.752c.67 0 1.193-.091 1.565-.275.678-.343 1.016-.989 1.016-1.95zM15.976.726h6.62V2.67h-6.62zm9.02 9.958h-8.323c.05 1.156.444 1.968 1.197 2.433.456.289 1.003.435 1.648.435.678 0 1.232-.177 1.656-.528.235-.192.44-.456.616-.794h3.05c-.08.683-.451 1.379-1.106 2.087-1.024 1.12-2.456 1.681-4.299 1.681-1.522 0-2.862-.471-4.023-1.42-1.166-.945-1.746-2.485-1.746-4.618 0-2 .525-3.535 1.574-4.602 1.051-1.064 2.41-1.6 4.084-1.6.997-.002 1.893.18 2.688.541.799.36 1.455.93 1.972 1.707.472.687.775 1.482.913 2.386.08.527.112 1.294.1 2.292zm-3.1-1.993c-.054-.802-.321-1.408-.795-1.826-.48-.414-1.069-.62-1.773-.62-.765 0-1.361.221-1.783.66-.422.44-.688 1.036-.797 1.786z"/></g></g></svg>