<svg xmlns="http://www.w3.org/2000/svg" width="33" height="36" viewBox="0 0 33 36"><g><g><path fill="#fff" d="M15.632 3.115c.57-3.219 3.119-3.593 5.245-2.692.51.216.87.846 1.226 1.34.101.143.183.444.209.458.03.017.297-.122.488-.177 1.913-.537 3.427-.166 4.23 1.207.415.706.52 1.61.642 2.45.03.202.034 1.137.034 1.513.291-.419 1.979-.468 2.846-.29 1.542.318 2.361 2.032 2.371 3.163.034 4.438.181 8.884-.038 13.311-.193 3.874-1.522 7.402-4.71 9.949-1.595 1.275-3.424 2.115-5.45 2.366-1.643.204-3.313.33-4.963.276-2.873-.093-5.404-1.254-7.761-2.826-2.278-1.522-4.097-3.504-5.755-5.647-1.238-1.6-2.527-3.169-3.67-4.834-.887-1.29-.702-2.77.254-3.913 1.21-1.445 2.619-1.865 4.223-1.308 1.905.66 3.33 1.896 4.42 3.55.572.87 1.452 1.23 2.363.949.803-.248 1.24-.123 1.371.391.154.597-.253 1.11-1.016 1.285-1.592.366-3.163-.329-4.117-1.702-.963-1.384-2.146-2.529-3.856-2.98-.833-.22-1.45.146-1.969.731-.46.522-.817 1.124-.38 1.805.677 1.054 1.376 2.1 2.146 3.089a89.461 89.461 0 0 0 3.266 3.943c2.154 2.464 4.724 4.377 7.885 5.334 2.048.623 4.159.723 6.319.397 1.897-.285 3.66-.814 5.225-1.903 1.939-1.352 3.128-3.25 3.838-5.466.488-1.526.572-3.093.558-4.686-.032-4.066-.008-8.131-.014-12.198-.002-.845-.469-1.401-1.284-1.585-.805-.18-1.612.107-1.895.807-.177.44-.195.964-.199 1.453-.02 2.28-.006 4.562-.014 6.841-.002.294.014.637-.1.877-.157.333-.31.626-.819.626-.342 0-.693-.497-.773-.83-.127-.54-.038-1.133-.038-1.702 0-3.694.002-7.387-.002-11.084 0-1.444-.916-2.178-2.335-1.88-.733.153-1.16.869-1.162 2.011-.008 3.372-.002 6.743-.004 10.115 0 .2 0 .397-.002.596-.002.551-.141 1.014-.813 1.001-.64-.011-.815-.404-.813-.996.014-3.296.008-6.594.006-9.893 0-.991.026-1.983-.01-2.975-.052-1.405-1.387-2.158-2.662-1.54-.79.384-.847 1.121-.85 1.836-.019 3.941-.01 7.883-.01 11.827 0 .247.007.496-.01.743-.037.508-.364.842-.824.745-.297-.064-.657-.43-.745-.73-.134-.46-.062-.982-.062-1.479-.004-2.826.008-5.653-.01-8.478-.004-.736-.29-1.367-1.022-1.66-.708-.284-1.71-.09-2.025.461-.245.427-.416.963-.42 1.451-.032 4.364-.01 8.726-.036 13.09-.002.373-.146.85-.399 1.096-.45.439-1.09.135-1.187-.496a3.92 3.92 0 0 1-.032-.594c-.002-4.387.008-8.775-.006-13.164-.004-1.414.408-2.605 1.751-3.247.724-.347 1.455-.57 2.368-.399.307.056.978.27.978.27zM19.92 19.41c2.4.03 4.663.54 6.61 2.027.238.182.43.548.458.845.02.216-.22.542-.433.665-.17.097-.54.047-.711-.081-1.863-1.413-4.01-1.891-6.28-1.817-1.023.033-2.036.368-3.064.492-.325.039-.847-.066-.98-.287-.221-.358-.241-.93.35-1.086 1.324-.35 2.36-.764 4.05-.758z"/></g></g></svg>