<svg xmlns="http://www.w3.org/2000/svg" width="22" height="22" viewBox="0 0 22 22"><g><g><path fill="#fff" d="M22 5.944v10.111A5.951 5.951 0 0 1 16.056 22H5.944A5.951 5.951 0 0 1 0 16.055V5.944A5.951 5.951 0 0 1 5.944-.001h10.112A5.951 5.951 0 0 1 22 5.944zm-1.777 0a4.172 4.172 0 0 0-4.167-4.168H5.944a4.172 4.172 0 0 0-4.167 4.168v10.111a4.172 4.172 0 0 0 4.167 4.167h10.112a4.172 4.172 0 0 0 4.167-4.167zm-5.217 7.95a4.903 4.903 0 0 1-3.239 1.941 4.89 4.89 0 0 1-3.662-.918 4.9 4.9 0 0 1-1.941-3.238 4.902 4.902 0 0 1 .917-3.663 4.9 4.9 0 0 1 3.24-1.94c.48-.072.966-.072 1.446 0a4.898 4.898 0 0 1 2.765 1.391 4.9 4.9 0 0 1 1.392 2.765 4.902 4.902 0 0 1-.918 3.663zm-.84-3.402A3.138 3.138 0 0 0 11.043 7.8a3.133 3.133 0 0 0-2.535 1.275 3.136 3.136 0 0 0-.587 2.343c.124.834.565 1.57 1.242 2.072s1.509.711 2.343.586a3.159 3.159 0 0 0 2.658-3.584zm3.284-5.054a.896.896 0 0 1-.26.629.897.897 0 0 1-.629.26.896.896 0 0 1-.628-.26.896.896 0 0 1-.26-.629c0-.234.094-.462.26-.628a.893.893 0 0 1 .628-.26c.234 0 .463.094.629.26.165.166.26.395.26.628z"/></g></g></svg>