<svg xmlns="http://www.w3.org/2000/svg" width="18" height="17" viewBox="0 0 18 17"><g><g><path fill="#fff" d="M.223 5.523H4.09V17H.223zM18 10.422v6.577h-3.856v-6.138c0-.81-.158-1.446-.474-1.905-.317-.46-.81-.689-1.483-.689-.492 0-.904.134-1.236.4-.332.266-.58.597-.744.99-.086.232-.13.545-.13.938v6.404H6.223c.016-3.08.024-5.578.024-7.493 0-1.914-.004-3.056-.012-3.427l-.012-.556h3.856v1.632c.149-.232.301-.436.457-.613a4.97 4.97 0 0 1 .662-.602 3.07 3.07 0 0 1 1.02-.504c.402-.12.85-.18 1.341-.18 1.336 0 2.41.44 3.223 1.315.813.876 1.219 2.16 1.219 3.851zM3.738.561c.39.374.59.847.598 1.418a1.824 1.824 0 0 1-.592 1.414c-.402.378-.932.566-1.588.566h-.023c-.64 0-1.157-.188-1.547-.566A1.89 1.89 0 0 1 0 1.979C0 1.408.2.935.603.561c.403-.375.928-.562 1.577-.562.648 0 1.168.187 1.558.562z"/></g></g></svg>