<svg xmlns="http://www.w3.org/2000/svg" viewBox="0 0 552.22 38.44"><defs><style>.cls-1{fill:#f2755a;}.cls-2{fill:#fa48af;}</style></defs><title>logo-name</title><g id="Слой_2" data-name="Слой 2"><g id="Слой_1-2" data-name="Слой 1"><path class="cls-1" d="M27.21,16.56l-2.73,1.7a11.43,11.43,0,0,0-9.65-4.69,11.16,11.16,0,0,0-8.11,3.14,10.28,10.28,0,0,0-3.23,7.64A10.84,10.84,0,0,0,5,29.85a10.39,10.39,0,0,0,4.08,4,11.85,11.85,0,0,0,5.81,1.42,11.72,11.72,0,0,0,9.62-4.69l2.73,1.79a12.82,12.82,0,0,1-5.15,4.48,16.45,16.45,0,0,1-7.36,1.59,14.53,14.53,0,0,1-10.52-4A13.11,13.11,0,0,1,0,24.6a14,14,0,0,1,2-7.21,13.77,13.77,0,0,1,5.37-5.2A15.74,15.74,0,0,1,15,10.32a16.28,16.28,0,0,1,5.12.81,14.18,14.18,0,0,1,4.19,2.11A11.53,11.53,0,0,1,27.21,16.56Z"/><path class="cls-1" d="M48.63,11h3.51v3.91a12.23,12.23,0,0,1,3.32-3.45,6.56,6.56,0,0,1,3.64-1.14,6.24,6.24,0,0,1,3,.91l-1.79,2.9a4.83,4.83,0,0,0-1.82-.47,5,5,0,0,0-3.32,1.41,8.81,8.81,0,0,0-2.43,4.39q-.65,2.28-.64,9.24v9H48.64V11Z"/><path class="cls-1" d="M103.69,28.88l2.9,1.52a15.6,15.6,0,0,1-3.3,4.52,13.11,13.11,0,0,1-4.21,2.62,14.63,14.63,0,0,1-5.29.9q-6.54,0-10.23-4.29a14.47,14.47,0,0,1-3.69-9.7A14.28,14.28,0,0,1,83,15.38a12.78,12.78,0,0,1,10.6-5.06,13.18,13.18,0,0,1,10.92,5.19,14.49,14.49,0,0,1,3,9.14H83.41a10.87,10.87,0,0,0,3,7.64,9.48,9.48,0,0,0,7.11,3,11.46,11.46,0,0,0,4-.71,10.65,10.65,0,0,0,3.29-1.88A16.44,16.44,0,0,0,103.69,28.88Zm0-7.2a11.45,11.45,0,0,0-2-4.4,9.48,9.48,0,0,0-3.48-2.65,10.67,10.67,0,0,0-4.55-1,9.81,9.81,0,0,0-6.77,2.53,11.46,11.46,0,0,0-3.13,5.53Z"/><path class="cls-1" d="M156.64,11V37.75h-3.39v-4.6a14.88,14.88,0,0,1-4.85,4,13.56,13.56,0,0,1-15.59-2.79,13.78,13.78,0,0,1-4-10,13.54,13.54,0,0,1,4.06-9.88,13.21,13.21,0,0,1,9.76-4.1,12.69,12.69,0,0,1,6,1.4,13.44,13.44,0,0,1,4.68,4.2V11h3.39Zm-13.75,2.63A10.39,10.39,0,0,0,133.72,19a10.81,10.81,0,0,0,0,10.8,10.42,10.42,0,0,0,3.89,4,10.14,10.14,0,0,0,5.24,1.44,10.82,10.82,0,0,0,5.35-1.42A10,10,0,0,0,152.1,30a11,11,0,0,0,1.36-5.48,10.65,10.65,0,0,0-3.06-7.76A10.1,10.1,0,0,0,142.89,13.64Z"/><path class="cls-1" d="M183.49,1.08h3.44V11h5.46v3h-5.46V37.75h-3.44V14H178.8V11h4.69Z"/><path class="cls-1" d="M214.84,0a2.74,2.74,0,0,1,2,.84,2.78,2.78,0,0,1,.83,2,2.74,2.74,0,0,1-.83,2,2.71,2.71,0,0,1-2,.84,2.68,2.68,0,0,1-2-.84,2.74,2.74,0,0,1-.83-2,2.78,2.78,0,0,1,.83-2A2.71,2.71,0,0,1,214.84,0Zm-1.7,11h3.44V37.75h-3.44Z"/><path class="cls-1" d="M237.3,11H241l9,19.49L258.81,11h3.69L250.26,37.75h-.64Z"/><path class="cls-1" d="M306.35,28.88l2.9,1.52a15.6,15.6,0,0,1-3.3,4.52,13.11,13.11,0,0,1-4.21,2.62,14.63,14.63,0,0,1-5.29.9q-6.54,0-10.23-4.29a14.47,14.47,0,0,1-3.69-9.7,14.28,14.28,0,0,1,3.13-9.07,12.78,12.78,0,0,1,10.6-5.06,13.18,13.18,0,0,1,10.92,5.19,14.49,14.49,0,0,1,2.95,9.14H286.07a10.87,10.87,0,0,0,3,7.64,9.48,9.48,0,0,0,7.11,3,11.46,11.46,0,0,0,4-.71,10.48,10.48,0,0,0,3.28-1.88A16.16,16.16,0,0,0,306.35,28.88Zm0-7.2a11.45,11.45,0,0,0-2-4.4,9.48,9.48,0,0,0-3.48-2.65,10.67,10.67,0,0,0-4.55-1,9.81,9.81,0,0,0-6.77,2.53,11.46,11.46,0,0,0-3.13,5.53Z"/><path class="cls-2" d="M348.58,14.75l-4.15,4.15q-2.54-2.5-4.6-2.51a2.91,2.91,0,0,0-1.77.48,1.44,1.44,0,0,0-.64,1.19,1.5,1.5,0,0,0,.41,1,7.59,7.59,0,0,0,2,1.24l2.46,1.23a14.39,14.39,0,0,1,5.33,3.91,7.7,7.7,0,0,1,1.45,4.67,7.7,7.7,0,0,1-2.62,6,10,10,0,0,1-7,2.38,11.15,11.15,0,0,1-9.34-4.57l4.13-4.5A9.42,9.42,0,0,0,337,31.59a6.06,6.06,0,0,0,2.81.85,3.35,3.35,0,0,0,2.14-.64,1.86,1.86,0,0,0,.81-1.47c0-1-1-2-2.93-3l-2.26-1.13q-6.48-3.27-6.49-8.18a7.14,7.14,0,0,1,2.44-5.42,8.89,8.89,0,0,1,6.26-2.25,10.86,10.86,0,0,1,4.9,1.14A10.64,10.64,0,0,1,348.58,14.75Z"/><path class="cls-2" d="M371.28,1.15H378V11h4v5.78h-4v21h-6.71v-21h-3.44V11h3.44Z"/><path class="cls-2" d="M401.64,11h6.78V23.89a17.58,17.58,0,0,0,.52,5.22,4.51,4.51,0,0,0,1.66,2.27,4.77,4.77,0,0,0,2.82.81,5,5,0,0,0,2.85-.8A4.67,4.67,0,0,0,418,29a18,18,0,0,0,.42-4.94V11h6.71V22.33c0,4.67-.37,7.86-1.11,9.59a10.44,10.44,0,0,1-4,4.83,12.19,12.19,0,0,1-6.68,1.68,11.88,11.88,0,0,1-7.12-2A10.41,10.41,0,0,1,402.43,31c-.52-1.62-.79-4.57-.79-8.85V11Z"/><path class="cls-2" d="M467.71.69h6.71V37.75h-6.71V34.92a13.24,13.24,0,0,1-3.94,2.69,11,11,0,0,1-4.28.82,11.9,11.9,0,0,1-9-4,14,14,0,0,1-3.78-10,14.36,14.36,0,0,1,3.66-10.15,11.65,11.65,0,0,1,8.89-4,11.27,11.27,0,0,1,4.52.91,12.34,12.34,0,0,1,3.9,2.73V.69Zm-7,15.82a6.77,6.77,0,0,0-5.17,2.2,8,8,0,0,0-2.06,5.64,8,8,0,0,0,2.09,5.7,6.79,6.79,0,0,0,5.16,2.24,6.89,6.89,0,0,0,5.24-2.2A8,8,0,0,0,468,24.33a7.83,7.83,0,0,0-2.08-5.65A7,7,0,0,0,460.66,16.51Z"/><path class="cls-2" d="M499.93,0a4.13,4.13,0,0,1,3,1.28,4.24,4.24,0,0,1,1.26,3.1A4.2,4.2,0,0,1,503,7.44a4.07,4.07,0,0,1-3,1.27,4.11,4.11,0,0,1-3.05-1.29,4.31,4.31,0,0,1-1.26-3.13,4.08,4.08,0,0,1,1.25-3A4,4,0,0,1,499.93,0Zm-3.36,11h6.71V37.75h-6.71Z"/><path class="cls-2" d="M538,10.32a14.18,14.18,0,0,1,7.11,1.89,13.66,13.66,0,0,1,5.2,5.14,13.85,13.85,0,0,1,1.87,7,14.1,14.1,0,0,1-1.88,7.08,13.54,13.54,0,0,1-5.12,5.15,14.12,14.12,0,0,1-7.15,1.86,13.34,13.34,0,0,1-9.82-4.09,13.58,13.58,0,0,1-4.07-9.94A13.53,13.53,0,0,1,528.78,14,13.41,13.41,0,0,1,538,10.32Zm.11,6.32a6.89,6.89,0,0,0-5.21,2.18,7.72,7.72,0,0,0-2.08,5.57A7.86,7.86,0,0,0,532.92,30a7.36,7.36,0,0,0,10.45,0,7.78,7.78,0,0,0,2.09-5.63,7.75,7.75,0,0,0-2.05-5.59A6.93,6.93,0,0,0,538.15,16.64Z"/></g></g></svg>