<svg xmlns="http://www.w3.org/2000/svg" xmlns:xlink="http://www.w3.org/1999/xlink" viewBox="0 0 537.1 202.85"><defs><style>.cls-1{fill:url(#Безымянный_градиент_42);}.cls-2{fill:url(#Безымянный_градиент_43);}.cls-3{fill:url(#Безымянный_градиент_43-2);}.cls-4{fill:none;}.cls-5{fill:url(#Безымянный_градиент_37);}.cls-6{fill:url(#Безымянный_градиент_36);}.cls-7{fill:url(#Безымянный_градиент_40);}.cls-8{fill:url(#Безымянный_градиент_41);}.cls-9{fill:url(#Безымянный_градиент_47);}.cls-10{fill:url(#Безымянный_градиент_36-2);}.cls-11{fill:url(#Безымянный_градиент_37-2);}.cls-12{fill:url(#Безымянный_градиент_42-2);}.cls-13{fill:url(#Безымянный_градиент_43-3);}.cls-14{fill:url(#Безымянный_градиент_43-4);}.cls-15{fill:url(#Безымянный_градиент_37-3);}.cls-16{fill:url(#Безымянный_градиент_39);}.cls-17{fill:url(#Безымянный_градиент_40-2);}.cls-18{fill:url(#Безымянный_градиент_41-2);}.cls-19{fill:url(#Безымянный_градиент_47-2);}.cls-20{fill:url(#Безымянный_градиент_47-3);}.cls-21{fill:url(#Безымянный_градиент_20);}.cls-22{fill:url(#Безымянный_градиент_21);}.cls-23{fill:url(#Безымянный_градиент_47-4);}.cls-24{fill:url(#Безымянный_градиент_38);}.cls-25{fill:url(#Безымянный_градиент_39-2);}.cls-26{fill:url(#Безымянный_градиент_36-3);}.cls-27{fill:url(#Безымянный_градиент_43-5);}.cls-28{fill:url(#Безымянный_градиент_37-4);}.cls-29{fill:url(#Безымянный_градиент_37-5);}.cls-30{fill:url(#Безымянный_градиент_47-5);}.cls-31{fill:url(#Безымянный_градиент_42-3);}.cls-32{fill:url(#Безымянный_градиент_43-6);}.cls-33{fill:url(#Безымянный_градиент_41-3);}.cls-34{fill:url(#Безымянный_градиент_40-3);}.cls-35{fill:url(#Безымянный_градиент_47-6);}.cls-36{fill:url(#Безымянный_градиент_47-7);}.cls-37{fill:url(#Безымянный_градиент_36-4);}.cls-38{fill:url(#Безымянный_градиент_37-6);}.cls-39{fill:url(#Безымянный_градиент_38-2);}.cls-40{fill:url(#Безымянный_градиент_39-3);}.cls-41{fill:url(#Безымянный_градиент_40-4);}.cls-42{fill:url(#Безымянный_градиент_41-4);}.cls-43{fill:url(#Безымянный_градиент_42-4);}.cls-44{fill:url(#Безымянный_градиент_43-7);}.cls-45{fill:url(#Безымянный_градиент_47-8);}.cls-46{fill:url(#Безымянный_градиент_47-9);}.cls-47{fill:url(#Безымянный_градиент_47-10);}.cls-48{fill:url(#Безымянный_градиент_47-11);}</style><linearGradient id="Безымянный_градиент_42" x1="145.78" y1="12.98" x2="184.72" y2="78.88" gradientTransform="matrix(1, 0, 0, -1, 0, 206.08)" gradientUnits="userSpaceOnUse"><stop offset="0" stop-color="#f7e7da"/><stop offset="0.09" stop-color="#f3d9ca"/><stop offset="0.25" stop-color="#e9b39f"/><stop offset="0.48" stop-color="#d8775b"/><stop offset="0.51" stop-color="#d66f52"/><stop offset="0.79" stop-color="#cc4949"/><stop offset="0.84" stop-color="#b73d40"/><stop offset="0.95" stop-color="#821e28"/><stop offset="1" stop-color="#650e1b"/></linearGradient><linearGradient id="Безымянный_градиент_43" x1="164.35" y1="2.01" x2="203.29" y2="67.9" gradientTransform="matrix(1, 0, 0, -1, 0, 206.08)" gradientUnits="userSpaceOnUse"><stop offset="0" stop-color="#e08d61"/><stop offset="0.19" stop-color="#eec673"/><stop offset="0.66" stop-color="#d23343"/><stop offset="0.72" stop-color="#c62f3f"/><stop offset="0.83" stop-color="#a62433"/><stop offset="0.97" stop-color="#721220"/><stop offset="1" stop-color="#670e1c"/></linearGradient><linearGradient id="Безымянный_градиент_43-2" x1="592.47" y1="-172.69" x2="474.55" y2="-195.93" gradientTransform="matrix(0.95, 0.32, 0.32, -0.95, -187.2, -210.25)" xlink:href="#Безымянный_градиент_43"/><linearGradient id="Безымянный_градиент_37" x1="196.05" y1="170.34" x2="196.05" y2="50.49" gradientTransform="matrix(1, 0, 0, -1, 0, 206.08)" gradientUnits="userSpaceOnUse"><stop offset="0" stop-color="#695fb8"/><stop offset="0.18" stop-color="#9797fb"/><stop offset="0.6" stop-color="#5656c3"/><stop offset="1" stop-color="#233463"/></linearGradient><linearGradient id="Безымянный_градиент_36" x1="186.03" y1="170.34" x2="186.03" y2="50.49" gradientTransform="matrix(1, 0, 0, -1, 0, 206.08)" gradientUnits="userSpaceOnUse"><stop offset="0" stop-color="#d5c4e7"/><stop offset="0.64" stop-color="#8161c0"/><stop offset="1" stop-color="#253668"/></linearGradient><linearGradient id="Безымянный_градиент_40" x1="196.26" y1="217.08" x2="196.26" y2="160.19" gradientTransform="matrix(1, 0, 0, -1, 0, 206.08)" gradientUnits="userSpaceOnUse"><stop offset="0" stop-color="#5c94d5"/><stop offset="0.26" stop-color="#7dc9ea"/><stop offset="0.61" stop-color="#5283cd"/><stop offset="1" stop-color="#283d70"/></linearGradient><linearGradient id="Безымянный_градиент_41" x1="178.59" y1="217.08" x2="178.59" y2="160.19" gradientTransform="matrix(1, 0, 0, -1, 0, 206.08)" gradientUnits="userSpaceOnUse"><stop offset="0" stop-color="#d0ecf8"/><stop offset="0.59" stop-color="#6292e4"/><stop offset="1" stop-color="#346"/></linearGradient><linearGradient id="Безымянный_градиент_47" x1="163.28" y1="99.78" x2="203.81" y2="47.69" gradientTransform="matrix(1, 0, 0, -1, 0, 206.08)" gradientUnits="userSpaceOnUse"><stop offset="0" stop-color="#6d6e70"/><stop offset="0.51" stop-color="#fff"/><stop offset="1" stop-color="#6d6e70"/></linearGradient><linearGradient id="Безымянный_градиент_36-2" x1="148.98" y1="88.03" x2="79.53" y2="153.86" xlink:href="#Безымянный_градиент_36"/><linearGradient id="Безымянный_градиент_37-2" x1="912.9" y1="4881.37" x2="1025.75" y2="4839.98" gradientTransform="matrix(-0.95, -0.32, -0.32, 0.95, 2542.34, -4145.52)" xlink:href="#Безымянный_градиент_37"/><linearGradient id="Безымянный_градиент_42-2" x1="-7.14" y1="92.04" x2="76.46" y2="6.05" xlink:href="#Безымянный_градиент_42"/><linearGradient id="Безымянный_градиент_43-3" x1="1048.44" y1="4843.07" x2="930.48" y2="4819.82" gradientTransform="matrix(-0.95, -0.32, -0.32, 0.95, 2542.34, -4145.52)" xlink:href="#Безымянный_градиент_43"/><linearGradient id="Безымянный_градиент_43-4" x1="18.27" y1="116.73" x2="101.86" y2="30.74" xlink:href="#Безымянный_градиент_43"/><linearGradient id="Безымянный_градиент_37-3" x1="124.08" y1="61.77" x2="54.63" y2="127.6" xlink:href="#Безымянный_градиент_37"/><linearGradient id="Безымянный_градиент_39" x1="74.32" y1="8.17" x2="141.59" y2="90.28" gradientTransform="matrix(1, 0, 0, -1, 0, 206.08)" gradientUnits="userSpaceOnUse"><stop offset="0" stop-color="#eac7d8"/><stop offset="0.07" stop-color="#e6b6cf"/><stop offset="0.22" stop-color="#dc8bb7"/><stop offset="0.42" stop-color="#cc4591"/><stop offset="0.45" stop-color="#ca3b8c"/><stop offset="0.54" stop-color="#be3886"/><stop offset="0.71" stop-color="#9e3076"/><stop offset="0.93" stop-color="#6a235d"/><stop offset="1" stop-color="#591f55"/></linearGradient><linearGradient id="Безымянный_градиент_40-2" x1="89.73" y1="158.13" x2="41.74" y2="52.14" xlink:href="#Безымянный_градиент_40"/><linearGradient id="Безымянный_градиент_41-2" x1="66.03" y1="168.86" x2="18.04" y2="62.87" xlink:href="#Безымянный_градиент_41"/><linearGradient id="Безымянный_градиент_47-2" x1="85.21" y1="161.67" x2="35.07" y2="74.06" xlink:href="#Безымянный_градиент_47"/><linearGradient id="Безымянный_градиент_47-3" x1="-2.95" y1="89.32" x2="82.98" y2="36.68" xlink:href="#Безымянный_градиент_47"/><linearGradient id="Безымянный_градиент_20" x1="43.96" y1="-36.3" x2="252.74" y2="282.82" gradientTransform="matrix(1, 0, 0, -1, 0, 206.08)" gradientUnits="userSpaceOnUse"><stop offset="0" stop-color="#eac7d8"/><stop offset="0.05" stop-color="#e6b6cf"/><stop offset="0.16" stop-color="#dc8bb7"/><stop offset="0.3" stop-color="#cc4591"/><stop offset="0.32" stop-color="#ca3b8c"/><stop offset="0.42" stop-color="#be3886"/><stop offset="0.6" stop-color="#9e3076"/><stop offset="0.84" stop-color="#6a235d"/><stop offset="0.91" stop-color="#591f55"/></linearGradient><linearGradient id="Безымянный_градиент_21" x1="30.3" y1="-27.36" x2="239.08" y2="291.76" gradientTransform="matrix(1, 0, 0, -1, 0, 206.08)" gradientUnits="userSpaceOnUse"><stop offset="0.05" stop-color="#a22877"/><stop offset="0.29" stop-color="#da4ee2"/><stop offset="0.46" stop-color="#d83ba8"/><stop offset="0.53" stop-color="#d7318a"/><stop offset="1" stop-color="#611d5d"/></linearGradient><linearGradient id="Безымянный_градиент_47-4" x1="134.94" y1="177.14" x2="77.28" y2="6.05" xlink:href="#Безымянный_градиент_47"/><linearGradient id="Безымянный_градиент_38" x1="332.17" y1="-7.42" x2="332.17" y2="95.59" gradientTransform="matrix(1, 0, 0, -1, 0, 206.08)" gradientUnits="userSpaceOnUse"><stop offset="0" stop-color="#a22877"/><stop offset="0.25" stop-color="#da4ee2"/><stop offset="0.52" stop-color="#d83ba8"/><stop offset="0.65" stop-color="#d7318a"/><stop offset="1" stop-color="#611d5d"/></linearGradient><linearGradient id="Безымянный_градиент_39-2" x1="361.22" y1="-7.42" x2="361.22" y2="95.59" xlink:href="#Безымянный_градиент_39"/><linearGradient id="Безымянный_градиент_36-3" x1="391.74" y1="84.85" x2="272.67" y2="144.65" xlink:href="#Безымянный_градиент_36"/><linearGradient id="Безымянный_градиент_43-5" x1="640.11" y1="-156.5" x2="522.15" y2="-179.75" gradientTransform="matrix(0.95, 0.32, 0.32, -0.95, -187.2, -210.25)" xlink:href="#Безымянный_градиент_43"/><linearGradient id="Безымянный_градиент_37-4" x1="379.27" y1="60.02" x2="260.2" y2="119.83" xlink:href="#Безымянный_градиент_37"/><linearGradient id="Безымянный_градиент_37-5" x1="504.58" y1="-118.2" x2="617.42" y2="-159.59" gradientTransform="matrix(0.95, 0.32, 0.32, -0.95, -187.2, -210.25)" xlink:href="#Безымянный_градиент_37"/><linearGradient id="Безымянный_градиент_47-5" x1="288.93" y1="123.41" x2="376.68" y2="70.51" xlink:href="#Безымянный_градиент_47"/><linearGradient id="Безымянный_градиент_42-3" x1="191.85" y1="12.24" x2="236.44" y2="74.28" xlink:href="#Безымянный_градиент_42"/><linearGradient id="Безымянный_градиент_43-6" x1="207.6" y1="0.92" x2="252.19" y2="62.96" xlink:href="#Безымянный_градиент_43"/><linearGradient id="Безымянный_градиент_41-3" x1="283.72" y1="167.34" x2="227.6" y2="52.58" xlink:href="#Безымянный_градиент_41"/><linearGradient id="Безымянный_градиент_40-3" x1="292.15" y1="163.22" x2="236.03" y2="48.46" xlink:href="#Безымянный_градиент_40"/><linearGradient id="Безымянный_градиент_47-6" x1="303.51" y1="158.68" x2="250.58" y2="83.79" xlink:href="#Безымянный_градиент_47"/><linearGradient id="Безымянный_градиент_47-7" x1="216.94" y1="95.09" x2="253.82" y2="47.69" xlink:href="#Безымянный_градиент_47"/><linearGradient id="Безымянный_градиент_36-4" x1="549.02" y1="83.23" x2="453.78" y2="152.28" xlink:href="#Безымянный_градиент_36"/><linearGradient id="Безымянный_градиент_37-6" x1="527.98" y1="54.24" x2="432.74" y2="123.28" xlink:href="#Безымянный_градиент_37"/><linearGradient id="Безымянный_градиент_38-2" x1="425.92" y1="21.15" x2="505.44" y2="104.01" xlink:href="#Безымянный_градиент_38"/><linearGradient id="Безымянный_градиент_39-3" x1="452.33" y1="-4.19" x2="531.85" y2="78.67" xlink:href="#Безымянный_градиент_39"/><linearGradient id="Безымянный_градиент_40-4" x1="486.21" y1="150.47" x2="417.61" y2="54.71" xlink:href="#Безымянный_градиент_40"/><linearGradient id="Безымянный_градиент_41-4" x1="457.3" y1="171.18" x2="388.72" y2="75.47" xlink:href="#Безымянный_градиент_41"/><linearGradient id="Безымянный_градиент_42-4" x1="370.76" y1="81.39" x2="457.43" y2="10.43" xlink:href="#Безымянный_градиент_42"/><linearGradient id="Безымянный_градиент_43-7" x1="394.79" y1="110.74" x2="481.46" y2="39.79" xlink:href="#Безымянный_градиент_43"/><linearGradient id="Безымянный_градиент_47-8" x1="454" y1="125.85" x2="540.29" y2="72.06" xlink:href="#Безымянный_градиент_47"/><linearGradient id="Безымянный_градиент_47-9" x1="378.83" y1="89.26" x2="464.94" y2="36.99" xlink:href="#Безымянный_градиент_47"/><linearGradient id="Безымянный_градиент_47-10" x1="503.83" y1="86.47" x2="450.83" y2="0.22" xlink:href="#Безымянный_градиент_47"/><linearGradient id="Безымянный_градиент_47-11" x1="468.05" y1="162.24" x2="414.64" y2="75.37" xlink:href="#Безымянный_градиент_47"/></defs><title>logo</title><g id="Слой_2" data-name="Слой 2"><g id="Слой_1-2" data-name="Слой 1"><path class="cls-1" d="M166.09,106.85v96c20.21-14.55,20-38,20-38V127H175.39Z"/><path class="cls-2" d="M206,163V127H186.15V164.8s.15,23.47-20.05,38A39.85,39.85,0,0,0,206,163Z"/><path class="cls-3" d="M206,128.53c0-.53,0-1,0-1.57h0C206,127.48,206,128,206,128.53Z"/><path class="cls-4" d="M186.14,130.1V127C186.12,128,186.13,129.05,186.14,130.1Z"/><path class="cls-5" d="M206,127V49.34s-19.82,14.77-19.82,37.94V127c0,1,0,2.09,0,3.14V141c.38.39.75.79,1.14,1.17.73.73,1.48,1.45,2.24,2.16A78.07,78.07,0,0,0,206,155.92V127Z"/><path class="cls-6" d="M166.1,89.21v15.22s1,8.5,3.63,11.16A87.36,87.36,0,0,0,175.4,127a77.72,77.72,0,0,0,10.74,14V130.1c0-1,0-2.1,0-3.14V87.28c0-23.16,19.82-37.94,19.82-37.94A39.87,39.87,0,0,0,166.1,89.21Z"/><path class="cls-4" d="M206.17,21.91c.06-.65.1-1.3.1-2a18.43,18.43,0,0,0-.1-2v3.94Z"/><path class="cls-7" d="M190.78.51a42.9,42.9,0,0,0-4.43,18.71V39.88a19.94,19.94,0,0,0,19.82-18V18A19.92,19.92,0,0,0,190.78.51Z"/><path class="cls-8" d="M186.35,19.21A42.9,42.9,0,0,1,190.78.5a19.94,19.94,0,1,0-4.45,39.38h0V21.15C186.35,20.5,186.35,19.86,186.35,19.21Z"/><path class="cls-9" d="M191.32,145.07c-17.3-15.41-25.22-36.15-25.22-41,0,10.91,13.21,30.78,23.43,40.19A78.07,78.07,0,0,0,206,155.92S195.61,148.89,191.32,145.07Z"/><path class="cls-10" d="M128.59,88a77.23,77.23,0,0,1,22.5,37.16h4.34c0-1.07,0-2.15-.06-3.23A77.81,77.81,0,0,0,94.52,49.19a77.17,77.17,0,0,0-32,19.39,80.29,80.29,0,0,1,10.21-1.1A77.29,77.29,0,0,1,128.59,88Z"/><path class="cls-11" d="M39.91,126.68c0-.53,0-1.05,0-1.57h0C39.88,125.63,39.89,126.16,39.91,126.68Z"/><path class="cls-12" d="M82.68,182.73A77.77,77.77,0,0,1,4.33,125.11,78.27,78.27,0,0,1,1.8,108.3,77.77,77.77,0,0,0,0,125.11c0,1.07,0,2.15.06,3.23A77.81,77.81,0,0,0,60.91,201a77.16,77.16,0,0,0,32-19.38A80.43,80.43,0,0,1,82.68,182.73Z"/><path class="cls-13" d="M115.51,123.54c0,.53,0,1,0,1.57h0C115.55,124.59,115.53,124.06,115.51,123.54Z"/><path class="cls-14" d="M115.54,125.11a37.82,37.82,0,0,1-36.26,37.8A77.72,77.72,0,0,1,1.79,108.3a78.9,78.9,0,0,0,2.53,16.81,77.78,77.78,0,0,0,88.56,56.52c.73-.73,1.45-1.48,2.15-2.24a77.2,77.2,0,0,0,20.51-54.29h0Z"/><path class="cls-15" d="M146.12,125.11h5A77.79,77.79,0,0,0,62.52,68.59c-.73.73-1.45,1.47-2.15,2.24a77.2,77.2,0,0,0-20.51,54.29h0a37.83,37.83,0,0,1,75.63-1.57c0,.52,0,1,0,1.57h19.82c0-1.65,0-3.31,0-5a78.48,78.48,0,0,0-1.1-10.22c-.73-.73-1.47-1.45-2.24-2.15A77.57,77.57,0,0,1,146.12,125.11Z"/><path class="cls-16" d="M135.33,120.14c.07,1.66.08,3.32,0,5h10.75a77.85,77.85,0,0,0-11.89-15.19A78.66,78.66,0,0,1,135.33,120.14Z"/><path class="cls-17" d="M52.1,153a37.56,37.56,0,0,1-12.18-26.27c0-.52,0-1.05-.05-1.57A77.79,77.79,0,0,1,94.51,49.2a77.71,77.71,0,0,0-74.46,75.9c0,1.65,0,3.31.05,5a78.51,78.51,0,0,0,1.09,10.21c.73.73,1.48,1.45,2.24,2.16a77.21,77.21,0,0,0,55.86,20.46A37.58,37.58,0,0,1,52.1,153Z"/><path class="cls-18" d="M74.48,47.45A77.81,77.81,0,0,0,1.79,108.3a77,77,0,0,0,7.5,16.81,77.82,77.82,0,0,0,11.88,15.18,78.32,78.32,0,0,1-1.09-10.21c-.07-1.67-.08-3.32,0-5A77.71,77.71,0,0,1,94.49,49.2h0A78.52,78.52,0,0,0,74.48,47.45Z"/><path class="cls-19" d="M60.38,70.83a77.2,77.2,0,0,0-20.51,54.29c0,.52,0,1,.05,1.57a38,38,0,0,0,1.39,8.74,65.36,65.36,0,0,1-1-10.31c-.21-9.55,1.54-21.23,7.5-34.45,13.56-30.08,44.6-40.75,46.64-41.43A77.1,77.1,0,0,0,60.38,70.83Z"/><path class="cls-20" d="M43.26,155.05C27,147.72,16.44,135.31,10,125.11a83,83,0,0,1-8.2-16.7,77.79,77.79,0,0,0,77.45,54.5A38,38,0,0,0,88,161.52C77.17,163.49,61.71,163.37,43.26,155.05Z"/><path class="cls-21" d="M135.38,39.39v85.73A77.73,77.73,0,0,1,60.93,201a78.48,78.48,0,0,0,20,1.74,77.52,77.52,0,0,0,74.49-77.66V1.36C135.22,15.91,135.38,39.39,135.38,39.39Z"/><path class="cls-22" d="M115.56,41.23v83.88A77.81,77.81,0,0,1,60.91,201h0a77.73,77.73,0,0,0,74.45-75.92V39.39s-.15-23.47,20.05-38A39.85,39.85,0,0,0,115.56,41.23Z"/><path class="cls-23" d="M114.94,41.23v83.88a78.5,78.5,0,0,1-7.29,34.45C94.09,189.64,63.05,200.31,61,201a77.8,77.8,0,0,0,54.54-75.88V41.23a40.64,40.64,0,0,1,5.9-20.88S114.94,28.32,114.94,41.23Z"/><path class="cls-24" d="M351.76,164.76V126.82c0-1.65,0-3.31-.05-5a78.51,78.51,0,0,0-1.09-10.21c-.73-.73-1.48-1.45-2.24-2.16A77.21,77.21,0,0,0,292.52,89a37.83,37.83,0,0,1,39.37,36.23c0,.52,0,1.05.05,1.57h0v36a39.87,39.87,0,0,0,39.87,39.87S351.76,187.92,351.76,164.76Z"/><path class="cls-25" d="M362.5,126.82a77.82,77.82,0,0,0-11.88-15.18,78.32,78.32,0,0,1,1.09,10.21c.07,1.67.08,3.32.05,5v37.94c0,23.16,20.05,37.94,20.05,37.94V126.83H362.5Z"/><path class="cls-26" d="M371.81,126.82c0-1.07,0-2.15-.06-3.23A77.81,77.81,0,0,0,310.9,50.9a77.16,77.16,0,0,0-32,19.38,80.29,80.29,0,0,1,10.21-1.1,77.77,77.77,0,0,1,78.35,57.62c1.44,5.43,4.34,16.81,4.34,16.81Z"/><path class="cls-27" d="M256.29,128.39c0-.53,0-1,0-1.57h0C256.26,127.34,256.27,127.87,256.29,128.39Z"/><path class="cls-28" d="M367.47,126.82A77.78,77.78,0,0,0,278.91,70.3c-.73.73-1.45,1.48-2.15,2.24a77.2,77.2,0,0,0-20.51,54.29h0A37.82,37.82,0,0,1,292.53,89a77.88,77.88,0,0,1,70,37.8c3.16,5.28,9.3,16.81,9.3,16.81S368.91,132.25,367.47,126.82Z"/><path class="cls-29" d="M331.89,125.25c0,.53,0,1,0,1.57h0C331.93,126.3,331.91,125.77,331.89,125.25Z"/><path class="cls-30" d="M362.5,126.82a77.88,77.88,0,0,0-70-37.8,38,38,0,0,0-8.74,1.39c10.85-2,26.31-1.86,44.76,6.47,16.24,7.33,26.82,19.74,33.23,29.94,5.45,8.68,9.73,15.76,10,16.7C370,137.67,365.64,132.07,362.5,126.82Z"/><path class="cls-31" d="M218.18,110a77.77,77.77,0,0,0-1.8,16.81V202.7c20.21-14.55,20.05-38,20.05-38V126.83a80.2,80.2,0,0,1,.66-8.52Z"/><path class="cls-32" d="M256.25,162.83v-36H236.43v37.85s.15,23.47-20.05,38A39.88,39.88,0,0,0,256.25,162.83Z"/><path class="cls-33" d="M290.86,49.16A77.81,77.81,0,0,0,218.17,110a77.12,77.12,0,0,0,18.29,30.87V131.8a77.71,77.71,0,0,1,74.41-80.88h0A78.11,78.11,0,0,0,290.86,49.16Z"/><path class="cls-34" d="M256.93,75.94a77.21,77.21,0,0,0-20.46,55.86v9.08c.36.38.72.75,1.09,1.12.73.73,1.48,1.45,2.24,2.16a78.26,78.26,0,0,0,16.49,11.65V128.4a77.79,77.79,0,0,1,54.59-77.48A77.18,77.18,0,0,0,256.93,75.94Z"/><path class="cls-35" d="M264.15,92.37c13.56-30.08,44.6-40.75,46.64-41.43a77.8,77.8,0,0,0-54.54,75.88l.51-6.35C257.63,113,258.19,105.59,264.15,92.37Z"/><path class="cls-36" d="M241.6,144.93C224.3,129.52,220,115.34,218.18,110c2.56,11.94,11.4,24.74,21.63,34.14a78.07,78.07,0,0,0,16.44,11.62S245.89,148.76,241.6,144.93Z"/><path class="cls-37" d="M454.39,67.35a76.81,76.81,0,0,0-10.21,1.1,77.11,77.11,0,0,1,32-19.39A77.81,77.81,0,0,1,537,121.75a78.68,78.68,0,0,1-1.74,20,77.76,77.76,0,0,0-80.9-74.44Z"/><path class="cls-38" d="M454.39,67.35a77.72,77.72,0,0,1,80.89,74.42,77.81,77.81,0,0,0-77.49-54.6,37.83,37.83,0,0,0-36.23,39.37A77.23,77.23,0,0,1,442,70.68c.7-.76,1.42-1.51,2.15-2.24A82.51,82.51,0,0,1,454.39,67.35Z"/><path class="cls-39" d="M513.65,107.64c.76.7,1.51,1.42,2.24,2.15A80.25,80.25,0,0,1,517,120a77.72,77.72,0,0,1-74.41,80.89h0a77.81,77.81,0,0,0,54.6-77.49,37.83,37.83,0,0,0-39.37-36.23A77.17,77.17,0,0,1,513.65,107.64Z"/><path class="cls-40" d="M517,120a78.48,78.48,0,0,0-1.1-10.22,77.11,77.11,0,0,1,19.39,32,77.81,77.81,0,0,1-72.69,60.85,78.52,78.52,0,0,1-20-1.74A77.74,77.74,0,0,0,517,120Z"/><path class="cls-41" d="M422.2,74.09a77.18,77.18,0,0,1,53.95-25,77.79,77.79,0,0,0-54.59,77.48,37.83,37.83,0,0,0,39.37,36.23,77.27,77.27,0,0,1-55.86-20.46c-.77-.7-1.51-1.43-2.24-2.16A78.32,78.32,0,0,1,401.74,130,77.26,77.26,0,0,1,422.2,74.09Z"/><path class="cls-42" d="M402.17,72.34a77.2,77.2,0,0,1,54-25,78.68,78.68,0,0,1,20,1.74h0a77.71,77.71,0,0,0-74.41,80.88,78.51,78.51,0,0,0,1.09,10.21,77.05,77.05,0,0,1-19.38-32A77.33,77.33,0,0,1,402.17,72.34Z"/><path class="cls-43" d="M408.48,162.13a77.79,77.79,0,0,0,66.07,19.36,77.05,77.05,0,0,1-32,19.38,77.81,77.81,0,0,1-60.85-72.69,78.68,78.68,0,0,1,1.74-20A77.23,77.23,0,0,0,408.48,162.13Z"/><path class="cls-44" d="M408.48,162.13a77.26,77.26,0,0,1-25-54,77.81,77.81,0,0,0,77.49,54.6,37.83,37.83,0,0,0,36.23-39.37,77.23,77.23,0,0,1-20.46,55.86c-.7.77-1.43,1.51-2.15,2.24a80.29,80.29,0,0,1-10.21,1.1A77.18,77.18,0,0,1,408.48,162.13Z"/><path class="cls-45" d="M457.79,87.17a77.8,77.8,0,0,1,77.45,54.49c-.67-2-11.35-33.07-41.43-46.64-18.45-8.32-33.91-8.43-44.76-6.47A39.16,39.16,0,0,1,457.79,87.17Z"/><path class="cls-46" d="M460.94,162.77a77.8,77.8,0,0,1-77.45-54.49c.67,2,11.35,33.07,41.43,46.64,18.45,8.32,33.91,8.43,44.76,6.47A38.59,38.59,0,0,1,460.94,162.77Z"/><path class="cls-47" d="M497.16,123.4a77.8,77.8,0,0,1-54.49,77.45c2-.67,33.07-11.35,46.64-41.43,8.32-18.45,8.43-33.91,6.47-44.76A38.5,38.5,0,0,1,497.16,123.4Z"/><path class="cls-48" d="M421.57,126.54a77.8,77.8,0,0,1,54.49-77.45c-2,.67-33.07,11.35-46.64,41.43C421.1,109,421,124.43,423,135.28A38.42,38.42,0,0,1,421.57,126.54Z"/></g></g></svg>