<svg xmlns="http://www.w3.org/2000/svg" width="30" height="41" viewBox="0 0 30 41"><g><g><path fill="#fff" d="M.01 20.495c0-1.554.013-3.109-.006-4.663-.01-.854.071-1.702.1-2.552.007-.202.053-.4.084-.6.047-.309.088-.619.149-.925.046-.238.115-.47.178-.704.07-.263.137-.526.222-.784.088-.269.194-.531.296-.795.085-.219.167-.439.266-.651.152-.33.302-.663.48-.98.253-.45.507-.899.8-1.321.462-.664.966-1.296 1.532-1.88.486-.503.996-.976 1.546-1.408.591-.465 1.205-.9 1.874-1.252.413-.218.834-.422 1.248-.638.393-.205.818-.33 1.23-.49.435-.168.889-.27 1.335-.399.653-.189 1.326-.255 1.992-.365.245-.041.498-.042.749-.05.533-.017 1.067-.058 1.599-.03.576.029 1.148.123 1.722.195.222.027.444.06.663.106.266.056.529.127.793.193.17.043.34.082.508.133.182.054.361.117.54.18.255.093.51.186.762.286.213.085.424.177.632.274.253.117.504.237.75.366.217.113.425.243.639.36.607.335 1.162.746 1.703 1.17a15.254 15.254 0 0 1 2.601 2.663c.43.562.797 1.16 1.159 1.764.141.236.25.491.37.738.1.205.203.409.29.618.105.254.194.514.29.772.062.169.13.336.182.508.08.264.146.531.218.797.044.166.093.332.129.5.043.2.078.404.11.608.05.3.104.6.137.903.028.255.019.514.045.77.117 1.157.06 2.32.063 3.478.008 2.933.008 5.866-.002 8.8a16.043 16.043 0 0 1-.1 1.613c-.051.492-.14.982-.227 1.47-.04.227-.112.45-.172.672-.073.265-.14.533-.225.795-.087.265-.194.523-.292.784-.06.16-.114.326-.185.483-.121.266-.261.526-.38.795-.235.53-.555 1.013-.867 1.499-.23.359-.496.697-.758 1.035a13.945 13.945 0 0 1-2.335 2.352 14.72 14.72 0 0 1-1.822 1.252 16.19 16.19 0 0 1-1.58.795c-.337.15-.69.271-1.037.403-.205.078-.41.157-.62.222-.177.056-.36.095-.54.139-.264.066-.527.144-.794.191-.706.126-1.412.254-2.131.274-.548.015-1.098.055-1.644.026-.564-.028-1.125-.124-1.687-.195a7.712 7.712 0 0 1-.664-.108c-.265-.055-.528-.127-.792-.194-.166-.042-.334-.08-.498-.128a9.884 9.884 0 0 1-.54-.18c-.255-.093-.51-.186-.762-.285-.207-.083-.41-.17-.613-.264-.253-.117-.506-.232-.752-.362-.262-.138-.515-.295-.772-.44-.618-.348-1.182-.77-1.73-1.212a13.773 13.773 0 0 1-1.877-1.827c-.482-.57-.945-1.155-1.323-1.8-.132-.225-.283-.44-.41-.668-.137-.25-.26-.51-.385-.767-.099-.202-.2-.402-.286-.608-.102-.248-.192-.501-.285-.752-.065-.176-.135-.35-.188-.529-.08-.263-.148-.53-.219-.796-.033-.124-.07-.247-.092-.375-.1-.559-.206-1.118-.29-1.68-.037-.247-.018-.5-.04-.748-.133-1.5-.042-3.003-.065-4.504-.009-.691 0-1.382 0-2.073zm2.75.034v5.226c.001.68 0 1.36.099 2.035.052.36.098.723.183 1.076.107.442.245.876.38 1.309.08.255.161.513.276.754.22.46.455.914.701 1.362.313.57.695 1.096 1.112 1.594.617.739 1.309 1.4 2.082 1.98.479.36.982.68 1.506.968.408.223.838.414 1.27.591.37.153.75.283 1.136.395.472.137.945.266 1.436.333.452.06.9.143 1.358.145.257.001.515.036.772.033.34-.005.68-.03 1.02-.048.104-.005.208-.014.311-.03.255-.038.511-.07.764-.122.422-.088.844-.182 1.263-.286.22-.055.433-.133.647-.207.235-.081.477-.152.7-.257.555-.26 1.107-.52 1.633-.84.478-.29.932-.61 1.364-.957.813-.658 1.544-1.401 2.145-2.256.303-.43.594-.871.851-1.328.234-.416.422-.856.616-1.291.107-.239.194-.485.27-.733.099-.323.194-.648.261-.978.105-.522.212-1.046.267-1.575a15.53 15.53 0 0 0 .056-1.564c.004-3.502-.001-7.005.004-10.508.002-1.049-.034-2.093-.264-3.122-.065-.29-.135-.58-.218-.865a8.035 8.035 0 0 0-.255-.74c-.17-.424-.332-.855-.538-1.264-.21-.415-.456-.817-.71-1.207a11.475 11.475 0 0 0-1.386-1.727c-.44-.453-.907-.874-1.412-1.253-.467-.352-.949-.688-1.477-.951-.434-.216-.87-.433-1.312-.633a5.641 5.641 0 0 0-.692-.248c-.452-.135-.904-.275-1.363-.384-.373-.088-.756-.133-1.135-.2-.066-.01-.102.01-.112.073-.005.036-.004.074-.004.11 0 1.723 0 3.448-.003 5.17 0 .113.05.17.146.206.09.034.182.066.269.109.481.238.906.548 1.267.944A3.925 3.925 0 0 1 19.078 12c-.003 1.004 0 2.007-.012 3.01-.003.197-.035.4-.094.587-.105.335-.203.67-.378.984a4.138 4.138 0 0 1-.746.983 3.822 3.822 0 0 1-1.414.881c-.35.12-.701.22-1.073.255a3.898 3.898 0 0 1-1.43-.136c-.179-.05-.366-.09-.53-.172-.357-.178-.71-.366-1.02-.626a3.99 3.99 0 0 1-.79-.88 3.46 3.46 0 0 1-.466-.97c-.085-.3-.185-.599-.192-.911-.013-.608-.01-1.214-.011-1.82 0-.448.003-.897.009-1.345.004-.36.082-.71.192-1.049.105-.322.257-.63.447-.919a4.04 4.04 0 0 1 1.011-1.063 3.58 3.58 0 0 1 .928-.5c.084-.03.13-.084.13-.183-.003-1.738-.002-3.477-.002-5.215 0-.022.001-.044-.002-.066-.008-.071-.04-.105-.121-.086-.08.017-.162.025-.243.039-.25.04-.505.064-.75.123-.442.106-.88.226-1.316.354-.264.076-.53.156-.78.268-.477.214-.944.45-1.412.682-.524.262-1.003.593-1.467.944a11.646 11.646 0 0 0-2.323 2.313c-.318.424-.597.876-.88 1.324-.277.437-.486.908-.681 1.383-.095.231-.18.465-.258.702-.104.32-.211.642-.29.97-.091.377-.16.761-.223 1.144a6.902 6.902 0 0 0-.096.82c-.022.493-.03.985-.031 1.478-.006 1.742-.004 3.484-.004 5.227zm13.604-7.164c0-.414.009-.83-.004-1.244a1.789 1.789 0 0 0-.092-.55 1.254 1.254 0 0 0-.813-.794c-.434-.144-.849-.098-1.227.156-.415.28-.588.69-.591 1.173-.004.84-.006 1.682.003 2.523.001.174.025.357.084.519.186.515.651.873 1.24.882.456.006.826-.16 1.11-.515.207-.26.285-.562.29-.884.004-.421 0-.843 0-1.266z"/></g></g></svg>