<svg xmlns="http://www.w3.org/2000/svg" width="18" height="22" viewBox="0 0 18 22"><g><g><path fill="#fff" d="M9.301-.001C3.23-.001 0 3.863 0 8.077c0 1.953 1.1 4.39 2.86 5.163.267.12.412.069.472-.177.052-.187.283-1.088.396-1.513a.387.387 0 0 0-.095-.383c-.584-.67-1.048-1.893-1.048-3.04 0-2.938 2.353-5.792 6.356-5.792 3.462 0 5.884 2.233 5.884 5.428 0 3.61-1.924 6.106-4.423 6.106-1.383 0-2.414-1.076-2.087-2.41C8.71 9.87 9.484 8.16 9.484 7.015c0-1.027-.584-1.877-1.778-1.877-1.408 0-2.55 1.385-2.55 3.244 0 1.181.42 1.98.42 1.98l-1.652 6.631c-.437 1.768.06 4.63.103 4.874.026.137.18.18.266.068.137-.179 1.82-2.564 2.293-4.289.171-.628.876-3.177.876-3.177.464.833 1.803 1.53 3.23 1.53C14.933 16 18 12.295 18 7.7 17.985 3.295 14.188 0 9.3 0z"/></g></g></svg>